<svg width="61" height="61" viewBox="0 0 61 61" fill="none" xmlns="http://www.w3.org/2000/svg">
<circle cx="30.5" cy="30.5" r="30.5" fill="#23242D"/>
<path d="M38.9103 43.1274C37.7665 43.1274 36.1599 42.7137 33.754 41.3696C30.8284 39.729 28.5655 38.2143 25.6558 35.3122C22.8503 32.5084 21.4851 30.6932 19.5743 27.2163C17.4157 23.2905 17.7837 21.2327 18.195 20.3532C18.6849 19.302 19.4079 18.6733 20.3425 18.0493C20.8733 17.7015 21.4351 17.4033 22.0206 17.1586C22.0792 17.1334 22.1337 17.1094 22.1823 17.0877C22.4724 16.9571 22.9118 16.7596 23.4685 16.9706C23.84 17.11 24.1716 17.3954 24.6907 17.9081C25.7554 18.9581 27.2103 21.2965 27.747 22.445C28.1073 23.219 28.3458 23.7299 28.3464 24.303C28.3464 24.9739 28.0089 25.4913 27.5993 26.0497C27.5226 26.1545 27.4464 26.2547 27.3726 26.352C26.9267 26.9379 26.8288 27.1073 26.8933 27.4096C27.0239 28.0172 27.9984 29.826 29.5997 31.4239C31.2011 33.0217 32.9577 33.9346 33.5677 34.0647C33.8829 34.1321 34.0558 34.0301 34.6605 33.5684C34.7472 33.5022 34.8362 33.4336 34.9294 33.3651C35.554 32.9004 36.0474 32.5717 36.7025 32.5717H36.706C37.2761 32.5717 37.7642 32.819 38.5728 33.2268C39.6275 33.7588 42.0362 35.195 43.0927 36.2608C43.6066 36.7788 43.8931 37.1092 44.0331 37.4801C44.2441 38.0385 44.0454 38.4762 43.9159 38.7692C43.8943 38.8178 43.8702 38.8711 43.845 38.9303C43.5984 39.5148 43.2985 40.0754 42.9491 40.6049C42.3263 41.5366 41.6952 42.2579 40.6417 42.7483C40.1007 43.0042 39.5087 43.1338 38.9103 43.1274Z" fill="url(#paint0_linear_302_879)"/>
<defs>
<linearGradient id="paint0_linear_302_879" x1="31.0032" y1="16.8779" x2="31.0032" y2="43.1276" gradientUnits="userSpaceOnUse">
<stop stop-color="#C04848"/>
<stop offset="1" stop-color="#480048"/>
</linearGradient>
</defs>
</svg>
