<svg width="61" height="61" viewBox="0 0 61 61" fill="none" xmlns="http://www.w3.org/2000/svg">
<circle cx="30.5" cy="30.5" r="30.5" fill="#23242D"/>
<path d="M31.0004 28.1273C32.0367 28.1273 32.8768 27.2872 32.8768 26.2509C32.8768 25.2146 32.0367 24.3745 31.0004 24.3745C29.9641 24.3745 29.124 25.2146 29.124 26.2509C29.124 27.2872 29.9641 28.1273 31.0004 28.1273Z" fill="url(#paint0_linear_302_900)"/>
<path d="M30.9995 16.875C25.8304 16.875 21.6245 20.8975 21.6245 25.8398C21.6245 28.1936 22.6974 31.3236 24.8132 35.1434C26.5124 38.2102 28.4782 40.9834 29.5007 42.3633C29.6735 42.5991 29.8994 42.7908 30.1601 42.923C30.4208 43.0551 30.709 43.124 31.0013 43.124C31.2936 43.124 31.5818 43.0551 31.8425 42.923C32.1032 42.7908 32.3291 42.5991 32.5019 42.3633C33.5226 40.9834 35.4901 38.2102 37.1894 35.1434C39.3017 31.3248 40.3745 28.1947 40.3745 25.8398C40.3745 20.8975 36.1687 16.875 30.9995 16.875ZM30.9995 30C30.2578 30 29.5328 29.7801 28.9161 29.368C28.2994 28.956 27.8188 28.3703 27.535 27.6851C27.2511 26.9998 27.1769 26.2458 27.3216 25.5184C27.4663 24.791 27.8234 24.1228 28.3479 23.5983C28.8723 23.0739 29.5405 22.7167 30.2679 22.5721C30.9954 22.4274 31.7494 22.5016 32.4346 22.7855C33.1198 23.0693 33.7055 23.5499 34.1175 24.1666C34.5296 24.7833 34.7495 25.5083 34.7495 26.25C34.7484 27.2442 34.353 28.1974 33.65 28.9005C32.9469 29.6035 31.9937 29.9989 30.9995 30Z" fill="url(#paint1_linear_302_900)"/>
<defs>
<linearGradient id="paint0_linear_302_900" x1="31.0004" y1="24.3745" x2="31.0004" y2="28.1273" gradientUnits="userSpaceOnUse">
<stop stop-color="#C04848"/>
<stop offset="1" stop-color="#480048"/>
</linearGradient>
<linearGradient id="paint1_linear_302_900" x1="30.9995" y1="16.875" x2="30.9995" y2="43.124" gradientUnits="userSpaceOnUse">
<stop stop-color="#C04848"/>
<stop offset="1" stop-color="#480048"/>
</linearGradient>
</defs>
</svg>
