<svg width="105" height="80" viewBox="0 0 105 80" fill="none" xmlns="http://www.w3.org/2000/svg">
<path d="M35.1533 0.226425C35.2003 0.483641 35.8349 0.857771 36.8691 1.2319C39.2667 2.12046 40.2539 2.70504 41.5231 3.92096C42.7924 5.13689 43.8736 5.6747 45.0724 5.6747C46.2006 5.6747 48.2691 6.14236 48.2691 6.37619C48.2691 6.70356 46.6707 6.96077 44.6258 6.96077C42.5339 6.96077 41.053 6.51649 39.4077 5.3941C38.2324 4.59907 35.5999 3.33638 35.1298 3.33638C34.9417 3.33638 35.3648 3.68713 36.07 4.10803C36.7751 4.52892 37.8564 5.27719 38.491 5.76823C40.63 7.40505 42.5574 8.10655 45.8011 8.48068C50.3375 8.97172 51.5363 8.66774 52.453 6.79709C52.735 6.18913 53.2286 5.51102 53.5577 5.30057C54.0748 4.9732 54.2629 4.9732 55.9787 5.3941C58.5878 6.04883 60.5387 7.10107 62.2781 8.80804C63.5474 10.0473 63.7824 10.3747 63.7824 11.0528C63.7824 12.4558 63.5239 12.9001 62.3016 13.7653L61.1028 14.6304L61.714 15.1449C62.0665 15.4489 62.4661 15.7295 62.6307 15.7762C62.8892 15.8698 62.8892 16.1971 62.6307 17.5066C62.4896 18.3951 62.2781 19.3538 62.2076 19.6578C62.1136 20.0553 62.1606 20.1489 62.4426 20.032C62.8422 19.8917 63.2183 19.0499 63.4298 17.7872C63.6884 16.2439 64.0175 16.5479 64.0175 18.3016C64.0175 19.3538 64.1115 19.915 64.2525 19.8215C64.3935 19.7514 64.4876 18.8394 64.4876 17.8106C64.4876 15.7762 64.7931 15.4021 65.1927 16.9454C65.7333 19.1434 65.8979 19.424 65.7568 17.9742C65.6863 17.2026 65.5688 16.4543 65.4983 16.2673C65.4278 16.1036 65.4748 15.9633 65.5688 15.9633C65.6863 15.9633 65.9919 16.5712 66.2739 17.2961C66.6265 18.325 66.8851 18.6757 67.2612 18.7225C67.9193 18.816 67.9193 18.5588 67.1906 17.0155C66.6735 15.9633 66.6265 15.6827 66.8851 15.1683C67.1436 14.5837 67.0966 14.4901 66.0859 13.5548C65.4748 13.017 64.8871 12.222 64.7461 11.7777C64.6051 11.3334 64.4876 9.79013 64.4876 8.34038C64.4876 6.72694 64.3935 5.6747 64.2525 5.6747C64.1115 5.6747 64.0175 6.39958 63.994 7.35829C63.9705 8.99511 63.9705 9.04187 63.6649 8.36376C63.2183 7.42844 63.2183 5.88515 63.6649 5.27719C64.0175 4.78614 63.9705 4.73937 62.6777 3.80405C60.2096 2.05031 55.4851 0.0627441 53.7928 0.0627441C52.1004 0.0627441 51.0897 1.06822 51.0897 2.72842C51.0897 3.85081 50.6431 4.9732 50.1965 4.9732C49.9614 4.9732 49.1623 4.69261 48.3866 4.36524C47.5874 4.0145 46.2477 3.66375 45.331 3.5936C44.1087 3.4533 43.004 3.12594 40.9825 2.23738C39.5017 1.58265 37.5508 0.764238 36.6811 0.436874C35.2708 -0.0775547 35.0828 -0.124321 35.1533 0.226425Z" fill="url(#paint0_linear_55_635)"/>
<path d="M93.8688 12.713C93.0227 12.9468 90.1785 13.6717 87.5225 14.3498L82.7039 15.5658L81.5287 16.7583C78.5671 19.7513 75.77 27.7951 75.77 33.2668C75.77 38.5514 77.9559 44.9116 81.4347 49.8455L82.6099 51.5057H88.2276C91.8709 51.5057 93.8923 51.4121 93.9864 51.2718C94.0804 51.1315 93.6808 50.4067 93.1402 49.6818C91.7299 47.8345 89.8025 44.0464 89.0738 41.7315C87.2639 35.9793 87.3109 28.5668 89.1913 22.9315C90.5076 18.9329 92.6231 15.4956 95.0911 13.2976C96.4074 12.1051 96.2899 12.0349 93.8688 12.713ZM84.4668 27.7951C84.4668 27.9121 83.5736 28.5902 82.4689 29.2917L80.471 30.5777L83.174 33.1265L85.9006 35.6519L83.7147 37.1718C79.6483 40.0245 79.8128 39.9544 79.4132 39.44C78.4965 38.2942 78.4965 38.3176 80.5885 36.9146C81.6932 36.1897 82.5864 35.535 82.5864 35.4181C82.5864 35.3245 81.4347 34.2021 80.0244 32.9161C78.6141 31.63 77.4858 30.5076 77.4858 30.4141C77.5093 30.3205 78.8491 29.3618 80.4475 28.2628L83.3386 26.2752L83.9027 26.9534C84.2083 27.3041 84.4668 27.7016 84.4668 27.7951Z" fill="url(#paint1_linear_55_635)"/>
<path d="M74.8533 17.6936L69.5881 19.12L68.5539 20.6399C66.415 23.82 64.8871 27.234 64.1115 30.6011C63.5473 32.9862 63.5473 37.6161 64.088 39.8609C64.9106 43.2046 66.8851 47.2499 69.2121 50.4067L70.0112 51.4823L75.723 51.5057C78.8491 51.5057 81.4112 51.4589 81.4112 51.3887C81.4112 51.342 80.8236 50.3833 80.0949 49.2843C74.9943 41.4977 73.725 32.9628 76.4516 24.6852C77.2038 22.417 78.6141 19.4474 79.9069 17.413C80.3535 16.7583 80.565 16.2205 80.4005 16.2205C80.2594 16.2439 77.7444 16.8986 74.8533 17.6936ZM71.163 31.4429L73.9366 34.0852L72.0092 37.4056C70.9514 39.2529 70.0112 40.7494 69.9407 40.7494C69.8467 40.7494 68.5539 39.5335 67.0731 38.0604L64.3935 35.3947L64.9812 34.3892C65.2867 33.828 66.1329 32.3549 66.8381 31.1156C67.5432 29.8529 68.1778 28.824 68.2484 28.824C68.3189 28.824 69.6352 30.0165 71.163 31.4429Z" fill="url(#paint2_linear_55_635)"/>
<path d="M67.5667 33.1265C67.0261 34.0618 66.603 34.9504 66.603 35.0673C66.603 35.3245 69.6116 38.2942 69.7292 38.1539C69.7997 38.1071 70.2933 37.2419 70.8339 36.2365L71.8446 34.3892L70.3403 32.8927C69.5176 32.0743 68.7655 31.3962 68.6714 31.3962C68.6009 31.3962 68.0838 32.1678 67.5667 33.1265Z" fill="url(#paint3_linear_55_635)"/>
<path d="M62.5366 20.9439C58.6113 22.0195 57.0599 22.5339 56.8014 22.8613C56.6134 23.1185 55.8142 24.5917 55.062 26.1583C51.8653 32.6588 51.6068 38.224 54.2393 44.2803C55.156 46.4081 57.2245 50.1728 57.9766 51.1081L58.4938 51.7629L63.6884 51.5758L68.9065 51.3887L67.5667 49.3544C64.323 44.5141 62.8422 40.0479 62.8422 35.2544C62.8422 30.6245 64.464 25.5036 67.2846 21.1543C67.8253 20.3593 68.2483 19.6344 68.2483 19.5877C68.2483 19.424 68.2483 19.424 62.5366 20.9439ZM59.434 31.63C59.8806 32.121 59.857 32.1444 57.7886 34.2021C56.6369 35.3479 55.7437 36.33 55.8142 36.3768C55.8612 36.4235 56.6369 36.9613 57.5065 37.5927L59.1049 38.7151L58.9404 37.0315C58.8698 36.1195 58.8698 35.3713 58.9874 35.3713C59.1049 35.3713 59.434 35.3011 59.716 35.231C60.3036 35.0673 60.3507 35.3479 60.6092 39.323C60.7502 41.1937 60.7267 41.4977 60.4212 41.3808C59.8335 41.1469 53.7927 36.7275 53.7927 36.5404C53.7927 36.2598 58.5878 31.1623 58.8228 31.1623C58.9168 31.1623 59.1989 31.3728 59.434 31.63Z" fill="url(#paint4_linear_55_635)"/>
<path d="M51.2072 23.9369C45.1899 25.5971 44.6963 25.9479 42.7689 30.0165C41.4291 32.8459 40.9825 34.4827 40.818 37.3589C40.6535 40.1415 41.1 42.7604 42.1813 45.3091L42.8629 46.9459L48.3396 49.3544C53.6282 51.6693 53.8398 51.7395 55.5086 51.7395C56.4253 51.7395 57.201 51.6927 57.201 51.6226C57.201 51.5524 56.5664 50.4067 55.7907 49.0738C52.3825 43.2748 51.0427 38.1071 51.7713 33.5006C52.1474 31.1156 53.4872 27.234 54.7565 24.8723C55.3206 23.7966 55.7907 22.8847 55.7907 22.8379C55.7907 22.6976 55.7907 22.6976 51.2072 23.9369ZM46.9528 34.9738L49.7734 36.8444L49.1858 37.3121C48.8802 37.5459 48.3631 37.9668 48.0575 38.224L47.4699 38.6683L48.8097 40.0012L50.1495 41.3574L49.6324 41.8718L49.1153 42.3862L47.799 40.9365L46.4827 39.4867L45.8481 39.9544C45.3074 40.3285 45.2134 40.5623 45.2604 41.334C45.331 42.2226 45.2839 42.2693 44.6023 42.3395L43.8736 42.4096L43.6386 37.7798C43.5211 35.231 43.4741 33.0797 43.5211 32.9628C43.6151 32.7524 43.5211 32.6822 46.9528 34.9738Z" fill="url(#paint5_linear_55_635)"/>
<path d="M45.0019 36.3534C45.0254 36.9146 45.0959 37.6628 45.1899 38.0604L45.331 38.7385L46.3417 37.8265L47.3759 36.9146L46.8353 36.5171C46.5297 36.3066 46.0126 35.9559 45.6365 35.7454L44.9784 35.3479L45.0019 36.3534Z" fill="url(#paint6_linear_55_635)"/>
<path d="M41.1 26.626C39.9483 26.9534 38.444 27.3743 37.7623 27.5613C37.1042 27.7484 36.2345 28.1459 35.8584 28.4733C34.5892 29.5255 31.1104 35.8857 29.7471 39.627L29.2535 40.9365L30.7813 41.5912C31.604 41.942 32.3327 42.1758 32.3797 42.129C32.4267 42.0823 32.9673 40.3519 33.5549 38.2942C34.1661 36.2365 34.7067 34.3658 34.7772 34.1086C34.8477 33.8748 35.0122 33.7812 35.1063 33.8748C35.3178 34.0852 38.1149 41.5211 38.2324 42.1056C38.2559 42.2927 38.0444 42.5265 37.7388 42.6435C37.2687 42.8305 37.1512 42.737 36.8456 42.0355C36.5166 41.2405 36.4696 41.2171 35.2473 41.2171C34.025 41.2171 33.978 41.2405 33.837 41.9653C33.7665 42.3629 33.7665 42.7838 33.8605 42.8773C34.1191 43.1111 41.5466 46.338 41.6407 46.2678C41.6642 46.2211 41.4996 45.73 41.2646 45.1688C40.1128 42.5265 39.6427 37.6161 40.2774 34.7867C40.865 32.0509 42.1578 28.9175 43.5916 26.7663C44.0617 26.0648 44.0617 26.018 43.6386 26.0414C43.4035 26.0414 42.2753 26.322 41.1 26.626Z" fill="url(#paint7_linear_55_635)"/>
<path d="M34.9887 37.5225C34.8242 38.0603 34.4011 39.6972 34.4011 39.8608C34.4011 40.0011 35.7644 39.8608 35.9759 39.7205C36.0699 39.6504 35.3178 37.2419 35.2003 37.2419C35.1297 37.2419 35.0592 37.3822 34.9887 37.5225Z" fill="url(#paint8_linear_55_635)"/>
<path d="M21.3558 39.3932C21.8729 41.1002 23.5183 42.9708 24.717 43.2046C30.3817 44.2803 37.1042 46.6653 51.4423 52.7216C55.8377 54.5922 63.6884 57.8425 68.883 59.947C74.0776 62.0515 78.2145 63.8286 78.097 63.852C77.7679 63.9923 62.5366 58.1699 54.4979 54.8495C39.9013 48.7932 34.6362 46.8758 27.8197 45.0519C25.7042 44.4907 23.8944 44.0231 23.8003 44.0231C23.7298 44.0231 23.8708 44.7246 24.1294 45.5897C24.5055 46.8758 24.5995 47.8579 24.5995 50.6873C24.623 53.9141 24.5525 54.3584 23.9649 56.1823C23.1892 58.4972 22.4605 59.9937 21.2148 61.8176L20.3216 63.1271L23.4243 63.2674C26.5034 63.3843 29.6296 63.9221 32.8733 64.8574C36.446 65.8863 51.8653 71.0072 51.6538 71.0774C51.5128 71.1241 50.1495 70.7734 48.5981 70.3057C42.4868 68.4818 30.4052 65.0913 28.5248 64.6938C25.8453 64.1092 20.5331 64.0858 19.3579 64.647C18.9113 64.8574 17.8065 65.6758 16.8899 66.4709C14.7744 68.3649 12.3534 69.9316 10.0969 70.9137C9.10969 71.3346 8.31052 71.7788 8.31052 71.8724C8.31052 71.9659 8.99216 72.1296 9.83834 72.1997C11.5777 72.3868 12.6825 72.2231 17.595 70.9838C21.9199 69.9082 23.2362 69.7211 24.6465 69.9082C25.8218 70.0719 25.8218 70.0719 23.5888 70.3525C22.3665 70.5162 20.0865 71.0072 18.5352 71.4749C12.0948 73.3221 9.69731 73.252 3.20992 71.054C-1.16201 69.5574 -1.06799 69.9783 3.49198 72.1997C6.33609 73.5794 8.31052 74.1405 11.3662 74.4211C14.9859 74.7719 21.2148 74.0002 23.9179 72.8545C25.3282 72.2699 25.5397 72.2699 27.9842 72.6908L28.7599 72.8311L28.5013 72.0828C28.3368 71.6853 27.8902 71.1475 27.4906 70.8903C26.5034 70.3057 26.8795 70.3291 29.2535 71.054C30.7578 71.5216 31.745 71.6619 33.4609 71.6619C35.4353 71.6853 35.9994 71.5918 38.3499 70.7968C40.7475 70.0017 41.1941 69.9316 42.8629 70.0251C44.6023 70.1186 44.9549 70.2356 48.081 71.8022C49.9379 72.7142 52.0299 73.6261 52.735 73.8599C54.4039 74.351 59.9276 74.5848 61.6905 74.2107C63.6179 73.8132 66.368 72.9714 66.368 72.7843C66.368 72.6908 63.8764 69.7913 60.8443 66.354C57.8121 62.8933 55.3676 60.0405 55.4146 59.9937C55.4616 59.947 57.013 61.4669 58.8699 63.3609C66.8851 71.545 67.7548 72.4102 67.8958 72.2699C67.9663 72.1997 65.7568 69.5341 62.9597 66.354C60.1626 63.1972 57.9061 60.5549 57.9532 60.4848C58.0237 60.438 60.5387 62.9634 63.5709 66.1201C68.3424 71.0774 69.6587 72.2933 69.6587 71.7321C69.6587 71.6619 68.2013 69.9316 66.4385 67.9206C61.9725 62.8231 61.996 62.7997 66.6265 67.3361C70.1993 70.8903 71.304 71.7788 71.304 71.241C71.304 71.1709 69.9172 69.5341 68.2249 67.5933C66.5325 65.6758 65.3572 64.2027 65.6158 64.343C65.8744 64.4833 67.3787 65.9564 68.977 67.5933C71.8446 70.5629 72.9494 71.4749 72.9494 70.8903C72.9494 70.7266 72.4088 69.955 71.7271 69.1833C71.069 68.3883 70.2933 67.4997 70.0347 67.1724C69.7527 66.8684 70.4343 67.4296 71.5391 68.4351C73.584 70.2823 74.7122 71.054 74.9238 70.7266C74.9943 70.6331 74.4537 69.8848 73.7485 69.0898C73.0199 68.2948 72.5263 67.64 72.5968 67.64C72.6908 67.64 73.49 68.3181 74.3597 69.1366C75.864 70.5395 76.8042 71.1241 77.1098 70.8201C77.1803 70.75 76.5691 69.9316 75.7465 68.9963C73.349 66.237 73.396 66.2137 76.1225 68.8326C78.4495 71.054 79.5778 71.8724 79.9069 71.5684C79.9539 71.4983 79.4838 70.8435 78.8256 70.1186C78.191 69.3938 77.6504 68.7157 77.6504 68.6455C77.6504 68.5754 78.3085 69.1366 79.1312 69.9082C81.6932 72.3634 83.3151 72.8779 81.3642 70.6331L80.1184 69.1599L81.3642 70.1888C82.0693 70.75 82.7745 71.4515 82.986 71.7555C83.2446 72.1764 84.3728 72.7843 84.8429 72.7843C85.078 72.7843 84.8899 72.1062 84.5844 71.849C84.3728 71.6853 84.2788 71.4983 84.3493 71.4281C84.4198 71.358 84.8194 71.6152 85.2425 72.0127C85.9476 72.7142 86.3237 72.8779 87.0054 72.8077C87.2404 72.7843 87.2404 72.6674 87.0289 72.2699L86.7468 71.7788L87.405 72.2699C88.1571 72.8545 89.1678 72.948 89.1678 72.4336C89.1678 72.153 89.2854 72.153 89.7085 72.34C90.8602 72.8545 95.8433 70.9371 98.4993 68.9729C101.179 66.9853 103.506 63.3843 104.493 59.7131C105.128 57.3748 105.175 53.4231 104.587 51.2718C103.247 46.3146 100.192 43.2748 96.4779 43.228C94.433 43.2046 94.1979 43.5554 95.1381 45.3091C96.0548 47.0862 97.4416 48.2554 99.463 49.027C102.331 50.1261 103.153 51.529 102.989 55.0131C102.918 56.7201 102.777 57.3047 102.143 58.5908C100.685 61.5136 97.5356 63.9689 94.386 64.6236C92.435 65.0211 86.5823 64.7639 83.6442 64.1326C78.285 63.0102 76.5691 62.3087 47.0938 49.4012C41.7347 47.0629 34.2836 43.8828 30.5228 42.3395C23.0482 39.2997 22.8366 39.2061 21.8729 38.9957C21.2618 38.8788 21.2148 38.9021 21.3558 39.3932ZM33.4844 48.7932C34.1896 49.1206 35.0827 49.6818 35.4588 50.0091C36.1405 50.5703 36.1405 50.5937 35.5764 50.4067C35.2473 50.3131 34.3776 50.243 33.6254 50.2897C32.2856 50.3599 32.2386 50.3365 31.9801 49.635C31.7215 48.9335 31.3925 48.8867 30.4523 49.3778C30.0292 49.6116 30.8989 50.6873 32.0036 51.2952L32.8733 51.7629L32.0506 51.6226C31.604 51.529 30.9459 51.3654 30.5698 51.2251C30.0997 51.038 29.8411 51.0614 29.6061 51.2484C29.3475 51.4589 29.136 51.4589 28.8069 51.2952C27.8197 50.7574 27.9842 48.8166 29.0655 48.2554C29.8881 47.8579 32.0741 48.1151 33.4844 48.7932Z" fill="url(#paint9_linear_55_635)"/>
<path d="M63.0772 53.8206C63.0772 55.6211 63.4298 56.2758 64.5581 56.5564L65.1927 56.6967V54.4519V52.2072H64.135H63.0772V53.8206Z" fill="url(#paint10_linear_55_635)"/>
<path d="M72.5498 52.7216C72.6203 53.0256 72.9729 54.6858 73.3019 56.4395C73.9131 59.4559 74.1951 60.3913 74.4302 60.1574C74.6182 59.9704 72.8553 52.2072 72.6438 52.2072C72.5263 52.2072 72.4793 52.441 72.5498 52.7216Z" fill="url(#paint11_linear_55_635)"/>
<path d="M79.0607 52.3942C79.0607 52.6748 82.5629 62.5425 82.7275 62.7062C82.7745 62.753 82.892 62.753 82.9625 62.6594C83.0565 62.5893 82.3044 60.2743 81.2936 57.5385C79.5778 52.9087 79.0607 51.6927 79.0607 52.3942Z" fill="url(#paint12_linear_55_635)"/>
<path d="M83.3151 52.8619C83.2916 53.3997 85.3835 58.3102 86.7233 60.8355C87.8751 62.9868 88.9328 64.6704 88.9328 64.2962C88.9328 64.2261 87.8515 61.9345 86.5118 59.1987C85.1955 56.4395 83.9262 53.8206 83.7147 53.3763C83.5031 52.932 83.3151 52.6982 83.3151 52.8619Z" fill="url(#paint13_linear_55_635)"/>
<path d="M38.3969 71.6385C35.2003 72.457 33.0143 72.6674 31.651 72.3634C30.6873 72.153 30.6403 72.153 30.6403 72.6674C30.6403 73.6963 29.9821 73.9301 25.5632 74.5381C23.2362 74.8654 20.2511 75.1928 18.8878 75.2863L16.4197 75.45L18.1826 75.7306C21.4498 76.2684 25.8218 76.1281 30.4052 75.3565C36.7516 74.2575 40.3244 73.7196 41.1705 73.7196C41.5936 73.7196 42.3223 73.9067 42.8159 74.1172L43.6856 74.5147L41.4526 74.6784C40.0423 74.7953 38.1854 75.146 36.352 75.6838C33.0143 76.6425 29.9116 77.2271 27.9372 77.2505C26.9265 77.2505 26.6679 77.3207 27.0205 77.461C28.2193 77.9286 30.1937 77.952 34.0485 77.4843C39.7602 76.7828 42.9099 76.5256 45.425 76.5256C48.1985 76.5256 54.1453 76.0813 54.5919 75.8241C54.8035 75.7072 54.6154 75.5903 54.0043 75.4968C52.7585 75.2629 50.6901 74.3276 48.1515 72.8311C44.4847 70.7032 42.9334 70.4928 38.3969 71.6385Z" fill="url(#paint14_linear_55_635)"/>
<path d="M99.7451 72.5037C97.9822 73.2286 97.4416 73.3455 95.2321 73.4391C93.0227 73.5326 92.6936 73.6027 92.5761 73.9769C92.4821 74.2341 92.3645 74.4211 92.2705 74.4445C90.7192 74.6316 82.751 74.5848 82.1633 74.3978C81.4817 74.1639 81.3172 74.2107 80.9176 74.6316C80.2829 75.2863 79.2487 75.2629 77.6504 74.5147C76.4281 73.9535 76.3576 73.9535 76.0755 74.351C75.1824 75.5669 75.0648 75.6371 74.0541 75.4734C73.5135 75.3799 72.0797 75.2629 70.8574 75.2162C68.695 75.0993 68.6715 75.0759 68.789 74.5147C68.836 74.2107 68.8595 73.9535 68.836 73.9535C68.6244 73.9535 58.2587 76.3386 58.1882 76.4087C58.1412 76.4555 58.7288 76.6192 59.481 76.8062C60.9383 77.1336 66.4385 77.2271 67.7313 76.9465C68.6715 76.7361 68.742 77.1336 67.8488 77.5077C66.6265 77.9754 60.1861 78.0222 57.201 77.5779C53.8633 77.0634 53.3697 77.0868 49.1858 77.7883C47.2114 78.1391 43.8031 78.4664 40.9825 78.6301C38.3265 78.7704 36.1405 78.9341 36.0935 78.9809C36.0465 79.0276 37.0572 79.1445 38.3265 79.2615C43.4741 79.6824 64.5111 79.1445 67.0966 78.4898C69.2826 77.952 71.116 78.0689 72.9024 78.8406C75.2529 79.8694 76.4986 80.1032 78.6611 79.963C80.612 79.846 82.8215 79.1913 82.986 78.7236C83.033 78.56 82.5629 78.3261 81.8578 78.1624C80.7295 77.8819 80.659 77.8351 81.0586 77.5545C81.5992 77.157 81.5992 77.157 80.0009 76.6425L78.7081 76.1983L79.5308 75.9878C81.1526 75.5669 83.7147 75.8943 85.7596 76.8062C88.2982 77.952 89.1914 78.1624 91.4008 78.1624C93.2577 78.1624 95.8433 77.6714 95.3967 77.4142C95.2557 77.344 94.48 77.2271 93.6338 77.1336C91.4008 76.8998 89.4029 76.5022 89.2619 76.245C89.1678 76.1047 89.2854 76.058 89.5439 76.1515C89.8025 76.2216 90.9307 76.3152 92.059 76.3386C93.9864 76.4087 94.1509 76.3619 94.527 75.8709C94.8326 75.4734 95.5377 75.1928 97.1831 74.7953C99.8861 74.1172 100.521 73.8132 101.743 72.5739C102.895 71.358 102.519 71.358 99.7451 72.5037Z" fill="url(#paint15_linear_55_635)"/>
<defs>
<linearGradient id="paint0_linear_55_635" x1="51.4157" y1="20.0788" x2="51.4157" y2="1.14441e-05" gradientUnits="userSpaceOnUse">
<stop stop-color="#480048"/>
<stop offset="1" stop-color="#C04848"/>
</linearGradient>
<linearGradient id="paint1_linear_55_635" x1="85.8485" y1="51.5057" x2="85.8485" y2="12.2821" gradientUnits="userSpaceOnUse">
<stop stop-color="#480048"/>
<stop offset="1" stop-color="#C04848"/>
</linearGradient>
<linearGradient id="paint2_linear_55_635" x1="72.5483" y1="51.5057" x2="72.5483" y2="16.2205" gradientUnits="userSpaceOnUse">
<stop stop-color="#480048"/>
<stop offset="1" stop-color="#C04848"/>
</linearGradient>
<linearGradient id="paint3_linear_55_635" x1="69.2238" y1="38.1587" x2="69.2238" y2="31.3962" gradientUnits="userSpaceOnUse">
<stop stop-color="#480048"/>
<stop offset="1" stop-color="#C04848"/>
</linearGradient>
<linearGradient id="paint4_linear_55_635" x1="60.6762" y1="51.7629" x2="60.6762" y2="19.5168" gradientUnits="userSpaceOnUse">
<stop stop-color="#480048"/>
<stop offset="1" stop-color="#C04848"/>
</linearGradient>
<linearGradient id="paint5_linear_55_635" x1="48.9929" y1="51.7395" x2="48.9929" y2="22.7762" gradientUnits="userSpaceOnUse">
<stop stop-color="#480048"/>
<stop offset="1" stop-color="#C04848"/>
</linearGradient>
<linearGradient id="paint6_linear_55_635" x1="46.1771" y1="38.7385" x2="46.1771" y2="35.3479" gradientUnits="userSpaceOnUse">
<stop stop-color="#480048"/>
<stop offset="1" stop-color="#C04848"/>
</linearGradient>
<linearGradient id="paint7_linear_55_635" x1="36.6019" y1="46.269" x2="36.6019" y2="26.037" gradientUnits="userSpaceOnUse">
<stop stop-color="#480048"/>
<stop offset="1" stop-color="#C04848"/>
</linearGradient>
<linearGradient id="paint8_linear_55_635" x1="35.1926" y1="39.919" x2="35.1926" y2="37.2419" gradientUnits="userSpaceOnUse">
<stop stop-color="#480048"/>
<stop offset="1" stop-color="#C04848"/>
</linearGradient>
<linearGradient id="paint9_linear_55_635" x1="52.5" y1="74.5065" x2="52.5" y2="38.9371" gradientUnits="userSpaceOnUse">
<stop stop-color="#480048"/>
<stop offset="1" stop-color="#C04848"/>
</linearGradient>
<linearGradient id="paint10_linear_55_635" x1="64.135" y1="56.6967" x2="64.135" y2="52.2072" gradientUnits="userSpaceOnUse">
<stop stop-color="#480048"/>
<stop offset="1" stop-color="#C04848"/>
</linearGradient>
<linearGradient id="paint11_linear_55_635" x1="73.4804" y1="60.1916" x2="73.4804" y2="52.2072" gradientUnits="userSpaceOnUse">
<stop stop-color="#480048"/>
<stop offset="1" stop-color="#C04848"/>
</linearGradient>
<linearGradient id="paint12_linear_55_635" x1="81.0156" y1="62.7369" x2="81.0156" y2="52.21" gradientUnits="userSpaceOnUse">
<stop stop-color="#480048"/>
<stop offset="1" stop-color="#C04848"/>
</linearGradient>
<linearGradient id="paint13_linear_55_635" x1="86.1238" y1="64.3485" x2="86.1238" y2="52.8096" gradientUnits="userSpaceOnUse">
<stop stop-color="#480048"/>
<stop offset="1" stop-color="#C04848"/>
</linearGradient>
<linearGradient id="paint14_linear_55_635" x1="35.5476" y1="77.8236" x2="35.5476" y2="70.9501" gradientUnits="userSpaceOnUse">
<stop stop-color="#480048"/>
<stop offset="1" stop-color="#C04848"/>
</linearGradient>
<linearGradient id="paint15_linear_55_635" x1="69.2229" y1="80" x2="69.2229" y2="71.653" gradientUnits="userSpaceOnUse">
<stop stop-color="#480048"/>
<stop offset="1" stop-color="#C04848"/>
</linearGradient>
</defs>
</svg>
