<svg width="61" height="61" viewBox="0 0 61 61" fill="none" xmlns="http://www.w3.org/2000/svg">
<circle cx="30.5" cy="30.5" r="30.5" fill="#23242D"/>
<path d="M43.187 19.6875H18.812C18.5634 19.6875 18.3249 19.7863 18.1491 19.9621C17.9733 20.1379 17.8745 20.3764 17.8745 20.625V39.375C17.8745 39.6236 17.9733 39.8621 18.1491 40.0379C18.3249 40.2137 18.5634 40.3125 18.812 40.3125H43.187C43.4357 40.3125 43.6741 40.2137 43.8499 40.0379C44.0257 39.8621 44.1245 39.6236 44.1245 39.375V20.625C44.1245 20.3764 44.0257 20.1379 43.8499 19.9621C43.6741 19.7863 43.4357 19.6875 43.187 19.6875ZM31.5749 31.6775C31.4104 31.8054 31.2079 31.8749 30.9995 31.8749C30.7911 31.8749 30.5887 31.8054 30.4241 31.6775L21.2466 24.5396L22.3974 23.0596L30.9995 29.7498L39.6017 23.0596L40.7524 24.5396L31.5749 31.6775Z" fill="url(#paint0_linear_302_887)"/>
<defs>
<linearGradient id="paint0_linear_302_887" x1="30.9995" y1="19.6875" x2="30.9995" y2="40.3125" gradientUnits="userSpaceOnUse">
<stop stop-color="#C04848"/>
<stop offset="1" stop-color="#480048"/>
</linearGradient>
</defs>
</svg>
