<svg width="17" height="16" viewBox="0 0 17 16" fill="none" xmlns="http://www.w3.org/2000/svg">
<path d="M7.80562 0.974943C8.04561 0.341971 8.95382 0.341971 9.19456 0.974943L10.747 5.27525C10.8011 5.41534 10.8965 5.5357 11.0205 5.62046C11.1445 5.70521 11.2913 5.75038 11.4415 5.74998H15.2565C15.9615 5.74998 16.269 6.62744 15.7148 7.05717L12.9999 9.49981C12.8783 9.5933 12.7894 9.72291 12.746 9.87004C12.7026 10.0172 12.707 10.1743 12.7584 10.3188L13.7499 14.5208C13.9913 15.1958 13.2099 15.7755 12.6189 15.3601L8.93132 13.0202C8.80504 12.9314 8.65444 12.8838 8.50009 12.8838C8.34574 12.8838 8.19514 12.9314 8.06886 13.0202L4.38127 15.3601C3.79105 15.7755 3.00883 15.1951 3.25032 14.5208L4.24178 10.3188C4.29321 10.1743 4.29755 10.0172 4.25416 9.87004C4.21078 9.72291 4.1219 9.5933 4.00029 9.49981L1.28541 7.05717C0.730436 6.62744 1.03942 5.74998 1.74289 5.74998H5.55797C5.70818 5.75048 5.85501 5.70536 5.97902 5.62059C6.10302 5.53582 6.19837 5.4154 6.25244 5.27525L7.80562 0.974943Z" stroke="#C4C4C4" stroke-linecap="round" stroke-linejoin="round"/>
</svg>
