<svg width="17" height="16" viewBox="0 0 17 16" fill="none" xmlns="http://www.w3.org/2000/svg">
<path d="M7.80562 0.974948C8.04561 0.341976 8.95382 0.341976 9.19456 0.974948L10.747 5.27526C10.8011 5.41534 10.8965 5.53571 11.0205 5.62046C11.1445 5.70522 11.2913 5.75038 11.4415 5.74999H15.2565C15.9615 5.74999 16.269 6.62745 15.7148 7.05718L12.9999 9.49982C12.8783 9.59331 12.7894 9.72292 12.746 9.87005C12.7026 10.0172 12.707 10.1743 12.7584 10.3188L13.7499 14.5208C13.9913 15.1958 13.2099 15.7755 12.6189 15.3601L8.93132 13.0202C8.80504 12.9314 8.65444 12.8838 8.50009 12.8838C8.34574 12.8838 8.19514 12.9314 8.06886 13.0202L4.38127 15.3601C3.79105 15.7755 3.00883 15.1951 3.25032 14.5208L4.24178 10.3188C4.29321 10.1743 4.29755 10.0172 4.25416 9.87005C4.21078 9.72292 4.1219 9.59331 4.00029 9.49982L1.28541 7.05718C0.730436 6.62745 1.03942 5.74999 1.74289 5.74999H5.55797C5.70818 5.75049 5.85501 5.70537 5.97902 5.6206C6.10302 5.53583 6.19837 5.4154 6.25244 5.27526L7.80562 0.974948Z" fill="#E7852A" stroke="#E7852A" stroke-linecap="round" stroke-linejoin="round"/>
</svg>
