<svg width="15" height="16" viewBox="0 0 15 16" fill="none" xmlns="http://www.w3.org/2000/svg">
<path d="M2.27071 10.6193C2.14364 10.4922 1.97467 10.4222 1.79501 10.4222C1.61532 10.4222 1.44638 10.4922 1.31934 10.6193C1.15105 10.7875 1.09131 11.0233 1.13889 11.2401L0.644789 11.7342C0.637113 11.7419 0.6297 11.7497 0.622317 11.7576L0.613645 11.7668C0.613234 11.7673 0.612883 11.7677 0.612473 11.7682C-0.214579 12.6307 -0.204237 14.0049 0.644789 14.8539C1.06148 15.2706 1.61549 15.5 2.20473 15.5C2.77837 15.5 3.31821 15.282 3.73091 14.8861L3.73097 14.8861L3.73917 14.8784C3.74796 14.8701 3.75678 14.8619 3.76475 14.8539L4.25841 14.3603C4.30573 14.3707 4.35439 14.3765 4.40403 14.3765C4.58372 14.3765 4.75268 14.3066 4.87975 14.1795C5.14198 13.9172 5.14198 13.4903 4.87972 13.228L2.27071 10.6193ZM2.2047 15.0268C1.74183 15.0268 1.30665 14.8466 0.979384 14.5193C0.370492 13.9104 0.310634 12.9576 0.799312 12.2807L3.2183 14.6995C2.9251 14.9119 2.57381 15.0268 2.2047 15.0268ZM3.56871 14.3806L1.11806 11.9302L1.3983 11.6499L3.84902 14.1003L3.56871 14.3806ZM4.54501 13.8448C4.50736 13.8825 4.45726 13.9033 4.40394 13.9033C4.37104 13.9033 4.33936 13.8954 4.31106 13.8804C4.3103 13.88 4.30965 13.8794 4.30889 13.8791C4.3011 13.8749 4.29372 13.87 4.28662 13.8649C4.28534 13.8639 4.28405 13.863 4.28279 13.862C4.27578 13.8567 4.26907 13.851 4.2628 13.8448L1.65388 11.2361C1.65376 11.236 1.65364 11.2358 1.65352 11.2357C1.64743 11.2296 1.64175 11.2229 1.63644 11.2159C1.63556 11.2147 1.63474 11.2136 1.63389 11.2124C1.62862 11.2051 1.62367 11.1975 1.61933 11.1895C1.61907 11.189 1.61878 11.1886 1.61851 11.1881C1.57884 11.1128 1.59065 11.0173 1.65396 10.954C1.69164 10.9163 1.74174 10.8955 1.79501 10.8955C1.8483 10.8955 1.89838 10.9163 1.93614 10.954L4.54501 13.5626C4.62283 13.6404 4.62283 13.7671 4.54501 13.8448Z" fill="white"/>
<path d="M14.8226 7.26735C14.5865 6.77139 14.1307 6.39964 13.4676 6.1597C13.4836 5.84487 13.4548 5.22342 13.0646 4.68987C12.7489 4.25827 12.2696 3.98012 11.6392 3.86056C11.5102 3.17888 11.1968 2.67559 10.7052 2.36387C10.2689 2.08719 9.79267 2.02915 9.47003 2.02915C9.42253 2.02915 9.37914 2.03041 9.34035 2.03238C8.85888 0.704551 7.94065 0.5 7.42197 0.5C7.01348 0.5 6.70904 0.620703 6.69629 0.62583C6.64062 0.648242 6.59559 0.690957 6.57025 0.745303L2.31217 9.87624C2.27012 9.96642 2.28893 10.0732 2.35931 10.1436L3.08305 10.8672C3.08317 10.8673 3.08329 10.8675 3.08337 10.8676L3.85748 11.6416L3.85754 11.6417L4.63203 12.416C4.63212 12.4161 4.63227 12.4162 4.63235 12.4163L5.35586 13.1399C5.40122 13.1852 5.46178 13.2091 5.52328 13.2091C5.55709 13.2091 5.59119 13.2019 5.62322 13.187L9.75885 11.2586C9.87728 11.2034 9.92853 11.0626 9.8733 10.9442C9.8181 10.8258 9.67732 10.7745 9.55883 10.8297L5.57338 12.688L5.16527 12.2799L13.2538 6.58535C13.8228 6.7807 14.2058 7.07663 14.3931 7.46607C14.6043 7.90506 14.5132 8.36101 14.4617 8.54356L10.3137 10.4777C10.1953 10.5329 10.144 10.6737 10.1992 10.7922C10.2545 10.9106 10.3953 10.9618 10.5137 10.9066L14.7547 8.92907C14.809 8.90373 14.8517 8.8587 14.8741 8.80304C14.8869 8.77149 15.1815 8.02105 14.8226 7.26735ZM2.81107 9.92608L6.95585 1.03818C7.05128 1.01108 7.22054 0.973233 7.42197 0.973233C8.12315 0.973233 8.62478 1.40129 8.91422 2.24618L3.21915 10.3341L2.81107 9.92608ZM3.55884 10.6736L9.30821 2.5086C9.35052 2.50526 9.4056 2.50236 9.47003 2.50236C10.0176 2.50236 10.9528 2.69809 11.1811 3.98387L4.0249 11.1397L3.55884 10.6736ZM12.9911 6.1916L4.82558 11.9404L4.35949 11.4744L11.5158 4.3185C12.0408 4.41146 12.4322 4.62893 12.6801 4.96576C13.012 5.41664 13.0078 5.97483 12.9911 6.1916Z" fill="white"/>
</svg>
