<svg width="15" height="8" viewBox="0 0 15 8" fill="none" xmlns="http://www.w3.org/2000/svg">
<path d="M7.75939 4.49365C7.75932 4.42488 7.73196 4.35895 7.68333 4.31032C7.63471 4.26169 7.56877 4.23434 7.5 4.23426C7.32749 4.23428 7.16058 4.17304 7.02902 4.06146C6.89746 3.94988 6.80979 3.7952 6.78165 3.62501C6.7535 3.45481 6.78671 3.28015 6.87535 3.13216C6.96398 2.98416 7.10229 2.87245 7.26562 2.81693V2.54245C7.26562 2.48029 7.29032 2.42068 7.33427 2.37672C7.37823 2.33277 7.43784 2.30808 7.5 2.30808C7.56216 2.30808 7.62177 2.33277 7.66573 2.37672C7.70968 2.42068 7.73438 2.48029 7.73438 2.54245V2.81693C7.87824 2.86601 8.00317 2.95883 8.0917 3.08239C8.18024 3.20596 8.22794 3.35411 8.22814 3.50611C8.22814 3.56827 8.20345 3.62789 8.1595 3.67184C8.11554 3.7158 8.05593 3.74049 7.99377 3.74049C7.93161 3.74049 7.872 3.7158 7.82804 3.67184C7.78409 3.62789 7.75939 3.56827 7.75939 3.50611C7.75939 3.45481 7.74418 3.40466 7.71568 3.362C7.68718 3.31934 7.64666 3.2861 7.59927 3.26646C7.55187 3.24683 7.49971 3.24169 7.44939 3.2517C7.39908 3.26171 7.35286 3.28642 7.31658 3.32269C7.2803 3.35897 7.2556 3.40519 7.24559 3.45551C7.23558 3.50583 7.24072 3.55798 7.26035 3.60538C7.27998 3.65278 7.31323 3.69329 7.35589 3.72179C7.39855 3.75029 7.4487 3.76551 7.5 3.76551C7.67251 3.76549 7.83942 3.82673 7.97098 3.93831C8.10254 4.04989 8.19021 4.20456 8.21835 4.37476C8.2465 4.54495 8.21329 4.71962 8.12465 4.86761C8.03602 5.0156 7.89771 5.12732 7.73438 5.18283V5.45731C7.73438 5.51947 7.70968 5.57909 7.66573 5.62304C7.62177 5.667 7.56216 5.69169 7.5 5.69169C7.43784 5.69169 7.37823 5.667 7.33427 5.62304C7.29032 5.57909 7.26562 5.51947 7.26562 5.45731V5.18283C7.12176 5.13375 6.99683 5.04094 6.9083 4.91737C6.81976 4.7938 6.77206 4.64566 6.77186 4.49365C6.77186 4.43149 6.79655 4.37188 6.8405 4.32792C6.88446 4.28397 6.94407 4.25928 7.00623 4.25928C7.06839 4.25928 7.128 4.28397 7.17196 4.32792C7.21591 4.37188 7.24061 4.43149 7.24061 4.49365C7.24061 4.56245 7.26793 4.62843 7.31658 4.67707C7.36523 4.72572 7.4312 4.75305 7.5 4.75305C7.5688 4.75305 7.63477 4.72572 7.68342 4.67707C7.73207 4.62843 7.75939 4.56245 7.75939 4.49365V4.49365ZM5.13108 3.99988C5.13108 3.53136 5.27002 3.07335 5.53032 2.68378C5.79062 2.29422 6.16059 1.99059 6.59345 1.81129C7.02632 1.63199 7.50263 1.58508 7.96215 1.67649C8.42168 1.76789 8.84378 1.99351 9.17508 2.32481C9.50638 2.65611 9.73199 3.07821 9.8234 3.53773C9.9148 3.99725 9.86789 4.47356 9.68859 4.90643C9.5093 5.33929 9.20567 5.70927 8.8161 5.96956C8.42653 6.22986 7.96853 6.3688 7.5 6.3688C6.87194 6.36809 6.26981 6.11829 5.8257 5.67418C5.3816 5.23008 5.13179 4.62794 5.13108 3.99988V3.99988ZM5.59983 3.99988C5.59983 4.3757 5.71128 4.74308 5.92007 5.05556C6.12886 5.36804 6.42563 5.61159 6.77284 5.75541C7.12005 5.89923 7.50211 5.93686 7.8707 5.86354C8.2393 5.79022 8.57788 5.60925 8.84362 5.3435C9.10936 5.07776 9.29034 4.73918 9.36366 4.37059C9.43697 4.00199 9.39934 3.61993 9.25552 3.27272C9.11171 2.92551 8.86816 2.62875 8.55568 2.41995C8.24319 2.21116 7.87582 2.09972 7.5 2.09972C6.99622 2.10028 6.51323 2.30066 6.157 2.65689C5.80078 3.01312 5.6004 3.4961 5.59983 3.99988V3.99988ZM15 0.242676V7.75709C15 7.81925 14.9753 7.87886 14.9314 7.92282C14.8874 7.96677 14.8278 7.99146 14.7656 7.99146H0.234375C0.172215 7.99146 0.112601 7.96677 0.0686469 7.92282C0.024693 7.87886 0 7.81925 0 7.75709V0.242676C0 0.180516 0.024693 0.120902 0.0686469 0.0769477C0.112601 0.0329938 0.172215 0.00830078 0.234375 0.00830078H14.7656C14.8278 0.00830078 14.8874 0.0329938 14.9314 0.0769477C14.9753 0.120902 15 0.180516 15 0.242676V0.242676ZM14.5312 0.477051H0.46875V7.52271H14.5312V0.477051ZM0.94875 5.78304V2.21673C0.94875 2.15457 0.973443 2.09495 1.0174 2.051C1.06135 2.00705 1.12096 1.98235 1.18312 1.98235C1.39285 1.98214 1.59392 1.89873 1.74222 1.75043C1.89051 1.60213 1.97392 1.40106 1.97414 1.19134C1.97414 1.12918 1.99883 1.06956 2.04279 1.02561C2.08674 0.981656 2.14636 0.956963 2.20852 0.956963H12.7915C12.8537 0.956963 12.9133 0.981656 12.9573 1.02561C13.0012 1.06956 13.0259 1.12918 13.0259 1.19134C13.0261 1.40106 13.1095 1.60213 13.2578 1.75043C13.4061 1.89873 13.6072 1.98214 13.8169 1.98235C13.8791 1.98235 13.9387 2.00705 13.9827 2.051C14.0266 2.09495 14.0513 2.15457 14.0513 2.21673V5.78304C14.0513 5.8452 14.0266 5.90481 13.9827 5.94877C13.9387 5.99272 13.8791 6.01741 13.8169 6.01741C13.6072 6.01763 13.4061 6.10104 13.2578 6.24934C13.1095 6.39763 13.0261 6.5987 13.0259 6.80843C13.0259 6.87059 13.0012 6.9302 12.9573 6.97416C12.9133 7.01811 12.8537 7.0428 12.7915 7.0428H2.20843C2.14627 7.0428 2.08665 7.01811 2.0427 6.97416C1.99875 6.9302 1.97405 6.87059 1.97405 6.80843C1.97384 6.5987 1.89043 6.39763 1.74213 6.24934C1.59383 6.10104 1.39276 6.01763 1.18304 6.01741C1.12089 6.01739 1.0613 5.99269 1.01737 5.94873C0.973431 5.90478 0.94875 5.84518 0.94875 5.78304V5.78304ZM1.4175 5.57052C1.666 5.61808 1.8945 5.73915 2.07341 5.91806C2.25231 6.09697 2.37339 6.32546 2.42095 6.57396H12.579C12.6266 6.32546 12.7477 6.09696 12.9266 5.91806C13.1055 5.73915 13.334 5.61808 13.5825 5.57052V2.42925C13.334 2.38169 13.1055 2.26062 12.9266 2.08171C12.7477 1.9028 12.6266 1.6743 12.579 1.4258H2.42095C2.37339 1.6743 2.25231 1.9028 2.07341 2.08171C1.8945 2.26061 1.666 2.38169 1.4175 2.42925V5.57052Z" fill="#28A55A"/>
</svg>
