<svg width="15" height="16" viewBox="0 0 15 16" fill="none" xmlns="http://www.w3.org/2000/svg">
<path d="M14.6559 5.74865C13.7101 2.73256 10.8878 0.5 7.50056 0.5C3.79861 0.5 0.676405 3.18882 0.0956796 6.80427V6.80433C-0.28611 9.1814 0.48686 11.5929 2.19666 13.3027C5.1323 16.2381 9.87917 16.2268 12.8035 13.3027C14.8303 11.2759 15.4717 8.35036 14.6559 5.74865ZM12.3793 3.12052C13.8777 4.6189 14.6035 6.73878 14.349 8.83731C14.2016 8.82873 14.066 8.81583 13.9066 8.79429C13.9787 8.67852 13.9648 8.52429 13.8642 8.42368C13.747 8.30656 13.5571 8.30656 13.4399 8.42368L13.2049 8.65869C13.1731 8.64921 12.9248 8.59284 12.5533 8.4618L12.5914 8.42371C12.7085 8.30656 12.7085 8.1166 12.5914 7.99942C12.4742 7.88231 12.2843 7.88231 12.1671 7.99942L11.9476 8.21893C11.7849 8.14675 11.5918 8.05267 11.3799 7.93813L11.5307 7.78733C11.6478 7.67018 11.6478 7.48022 11.5307 7.36304C11.4135 7.2459 11.2236 7.2459 11.1064 7.36304L10.8451 7.62434C10.6689 7.51292 10.5033 7.39967 10.3402 7.28067L10.47 7.15092C10.5871 7.03377 10.5871 6.84381 10.47 6.72663C10.3528 6.60949 10.1629 6.60949 10.0457 6.72663L9.86321 6.90909C9.74255 6.81033 9.58012 6.66817 9.4129 6.51091L9.62141 6.30241C9.73856 6.18526 9.73856 5.99531 9.62141 5.87813C9.50422 5.76098 9.31432 5.76098 9.1971 5.87813L8.9886 6.08663C8.96448 6.06101 8.89596 5.98967 8.78048 5.8589C8.75324 5.828 8.64251 5.70062 8.59037 5.63636L8.77283 5.45391C8.88999 5.33676 8.88999 5.1468 8.77283 5.02962C8.65565 4.91248 8.46575 4.91248 8.34853 5.02962L8.21878 5.15937C8.09359 4.98801 7.9896 4.83448 7.87509 4.65454L8.13643 4.39324C8.25358 4.2761 8.25358 4.08614 8.13643 3.96896C8.01924 3.85181 7.82934 3.85181 7.71213 3.96896L7.56128 4.1198C7.45523 3.92375 7.36388 3.73905 7.28044 3.55212L7.49999 3.33258C7.61714 3.21543 7.61714 3.02548 7.49999 2.90833C7.38287 2.79118 7.19287 2.79118 7.07572 2.90833L7.03765 2.9464C6.95434 2.71066 6.90246 2.53298 6.84072 2.29484L7.07575 2.05982C7.1929 1.94268 7.1929 1.75272 7.07575 1.63554C6.97513 1.53492 6.82092 1.52097 6.70512 1.59318C6.68409 1.43841 6.67071 1.29796 6.66213 1.15075C6.94009 1.117 7.22104 1.09993 7.50047 1.09993C9.34363 1.09999 11.0762 1.81758 12.3793 3.12052ZM2.62093 12.8784C1.12252 11.3801 0.396707 9.26018 0.651174 7.16163C0.800158 7.17042 0.934801 7.18317 1.09363 7.20462C1.02141 7.32038 1.03536 7.47461 1.13596 7.57523C1.25308 7.69235 1.44307 7.69238 1.56026 7.57523L1.79528 7.34021C2.00319 7.39229 2.22165 7.45763 2.44687 7.53713L2.4088 7.5752C2.29165 7.69235 2.29162 7.88231 2.4088 7.99948C2.52598 8.1166 2.71592 8.11663 2.83307 7.99948L3.05262 7.77995C3.2415 7.86479 3.42142 7.95295 3.62032 8.0608L3.46948 8.21161C3.35232 8.32876 3.35232 8.51871 3.46948 8.63589C3.58666 8.75304 3.77659 8.75301 3.89378 8.63589L4.15508 8.3746C4.32441 8.48175 4.48494 8.59071 4.65994 8.71824L4.53018 8.84799C4.41303 8.96514 4.41303 9.15509 4.53018 9.27227C4.64737 9.38942 4.8373 9.38939 4.95448 9.27227L5.13695 9.08981C5.29571 9.22295 5.39895 9.31091 5.58726 9.488L5.37876 9.6965C5.2616 9.81364 5.2616 10.0036 5.37876 10.1208C5.49594 10.2379 5.68587 10.2379 5.80306 10.1208L6.01156 9.91228C6.16418 10.0745 6.28958 10.2174 6.40976 10.3626L6.2273 10.545C6.11014 10.6622 6.11014 10.8521 6.2273 10.9693C6.34448 11.0865 6.53442 11.0864 6.6516 10.9693L6.78135 10.8396C6.90796 11.0132 7.01434 11.1699 7.12504 11.3444L6.86373 11.6057C6.74658 11.7228 6.74658 11.9128 6.86373 12.03C6.98092 12.1471 7.17085 12.1471 7.28803 12.03L7.43885 11.8792C7.55231 12.0886 7.65098 12.2919 7.71966 12.4468L7.50008 12.6663C7.38293 12.7834 7.38293 12.9734 7.50008 13.0905C7.61729 13.2077 7.80717 13.2077 7.92438 13.0905L7.96248 13.0524C8.09506 13.4283 8.14843 13.6673 8.15938 13.704L7.92435 13.939C7.8072 14.0562 7.8072 14.2461 7.92435 14.3633C7.98294 14.4219 8.05972 14.4512 8.13649 14.4512C8.1916 14.4512 8.24659 14.4358 8.29495 14.4056C8.31595 14.5612 8.32915 14.6968 8.33797 14.8481C6.28709 15.0973 4.17842 14.4358 2.62093 12.8784ZM8.93343 14.7493C8.91699 14.5028 8.87685 14.1928 8.81705 13.8949L9.19716 13.5148C9.31432 13.3977 9.31432 13.2077 9.19716 13.0905C9.07998 12.9734 8.89008 12.9734 8.77286 13.0905L8.64761 13.2158C8.58614 13.0104 8.51519 12.8021 8.4304 12.5845L8.77289 12.242C8.89005 12.1249 8.89005 11.9349 8.77289 11.8178C8.65571 11.7006 8.46581 11.7006 8.34859 11.8178L8.17315 11.9932C8.07793 11.7945 8.00133 11.647 7.88169 11.4362L8.13646 11.1814C8.25361 11.0643 8.25361 10.8743 8.13646 10.7571C8.01927 10.64 7.82937 10.64 7.71216 10.7571L7.55993 10.9094C7.44923 10.7404 7.33286 10.5738 7.21081 10.41L7.50008 10.1207C7.61723 10.0036 7.61723 9.81364 7.50008 9.69646C7.38296 9.57935 7.19296 9.57935 7.07581 9.69646L6.83607 9.93619C6.70749 9.78319 6.57378 9.63377 6.43598 9.48779L6.65157 9.27221C6.76872 9.15506 6.76872 8.96511 6.65157 8.84793C6.53442 8.73081 6.34445 8.73081 6.22727 8.84793L6.01168 9.06351C5.8657 8.92569 5.71623 8.79201 5.56326 8.66343L5.803 8.42371C5.92015 8.30656 5.92015 8.1166 5.803 7.99942C5.68584 7.88231 5.49588 7.88231 5.3787 7.99942L5.08943 8.28871C4.92568 8.16667 4.759 8.0503 4.59004 7.93957L4.74229 7.78733C4.85944 7.67018 4.85944 7.48022 4.74229 7.36304C4.62514 7.2459 4.43517 7.2459 4.31799 7.36304L4.06322 7.6178C3.87929 7.51343 3.6934 7.41611 3.50617 7.32632L3.68158 7.15092C3.79874 7.03377 3.79877 6.84381 3.68158 6.72666C3.56443 6.60949 3.37446 6.60955 3.25731 6.72666L2.91479 7.06914C2.70128 6.98583 2.49478 6.91545 2.28349 6.85194L2.40874 6.72669C2.52589 6.60955 2.52589 6.41959 2.40874 6.30241C2.29159 6.18526 2.10162 6.18526 1.98444 6.30241L1.60433 6.68251C1.32004 6.62575 1.03911 6.58705 0.749876 6.56614C1.3009 3.95129 3.35847 1.82019 6.06673 1.2496C6.08167 1.47597 6.1207 1.7928 6.18311 2.10401L5.803 2.48411C5.68584 2.60125 5.68584 2.79121 5.803 2.90839C5.92012 3.02551 6.11011 3.02554 6.2273 2.90839L6.35255 2.78314C6.41474 2.99251 6.49181 3.21462 6.56976 3.41442L6.22727 3.75693C6.11011 3.87407 6.11011 4.06403 6.22727 4.18118C6.34442 4.29833 6.53439 4.29833 6.65154 4.18118L6.82695 4.00577C6.91675 4.19303 7.01407 4.37887 7.11844 4.5628L6.86367 4.81756C6.74652 4.9347 6.74652 5.12466 6.86367 5.24184C6.9808 5.35896 7.17079 5.35899 7.28797 5.24184L7.44023 5.08959C7.55093 5.25855 7.6673 5.42523 7.78935 5.58896L7.50008 5.87816C7.38293 5.99531 7.38293 6.18526 7.50008 6.30244C7.61723 6.41959 7.80717 6.41959 7.92438 6.30244L8.16412 6.06272C8.29267 6.21571 8.42638 6.36514 8.56421 6.51112L8.34862 6.72666C8.23147 6.84381 8.23147 7.03377 8.34862 7.15095C8.46578 7.2681 8.65571 7.2681 8.77292 7.15095L8.98851 6.9354C9.13449 7.07319 9.28396 7.2069 9.43693 7.33547L9.19719 7.5752C9.08004 7.69235 9.08004 7.88231 9.19719 7.99948C9.31441 8.11663 9.50428 8.1166 9.6215 7.99948L9.91076 7.71023C10.0745 7.83227 10.2412 7.94863 10.4102 8.05933L10.2579 8.21161C10.1407 8.32876 10.1407 8.51871 10.2579 8.63589C10.3751 8.75304 10.565 8.75301 10.6822 8.63589L10.937 8.38114C11.1468 8.50017 11.2949 8.57715 11.494 8.67258L11.3186 8.84802C11.2014 8.96517 11.2014 9.15512 11.3186 9.2723C11.4358 9.38945 11.6257 9.38942 11.7429 9.2723L12.0854 8.92983C12.3056 9.01575 12.5116 9.08525 12.7166 9.14702L12.5914 9.27227C12.4742 9.38942 12.4742 9.57938 12.5914 9.69656C12.7086 9.8137 12.8985 9.81367 13.0157 9.69656L13.3958 9.31646C13.6948 9.3764 13.9998 9.41612 14.2503 9.43283C13.6993 12.0476 11.6417 14.1788 8.93343 14.7493Z" fill="white"/>
</svg>
