<svg width="15" height="16" viewBox="0 0 15 16" fill="none" xmlns="http://www.w3.org/2000/svg">
<path d="M7.49849 15.5C3.36685 15.5 0 12.1305 0 7.9956C0 3.8607 3.36685 0.5 7.49849 0.5C11.6301 0.5 14.9882 3.8607 14.9882 7.9956C14.9882 12.1305 11.6301 15.5 7.49849 15.5ZM7.49849 0.922287C3.59541 0.922287 0.430745 4.09824 0.430745 7.9956C0.430745 11.9018 3.59541 15.0689 7.49849 15.0689C11.3928 15.0689 14.5662 11.9018 14.5662 7.9956C14.5662 4.09824 11.3928 0.922287 7.49849 0.922287Z" fill="white"/>
<path d="M5.16894 15.1129C5.08104 15.1129 4.99313 15.0601 4.97555 14.9721C3.11192 9.92229 3.36685 6.34164 3.90308 4.23021C4.47448 1.92522 5.51178 0.825513 5.55574 0.781525C5.64364 0.693548 5.7755 0.693548 5.86341 0.781525C5.93374 0.860704 5.93374 1.00147 5.86341 1.08065C5.84583 1.09824 4.85248 2.17155 4.28987 4.37977C3.78001 6.42082 3.53387 9.90469 5.36234 14.8314C5.3975 14.937 5.35355 15.0601 5.23927 15.0953C5.2129 15.1129 5.19532 15.1129 5.16894 15.1129Z" fill="white"/>
<path d="M14.786 8.21554C14.7596 8.21554 14.7333 8.21554 14.6981 8.20675C9.97747 6.26246 6.33811 6.36804 4.09648 6.78153C1.67903 7.239 0.351629 8.17155 0.342838 8.17155C0.24614 8.24194 0.105489 8.21554 0.0527443 8.11877C-0.0263722 8.02199 6.9876e-09 7.89003 0.0966979 7.82845C0.158233 7.79326 1.50321 6.85191 3.99978 6.36804C6.28537 5.92815 10.039 5.81378 14.8651 7.80205C14.9794 7.85484 15.0233 7.97801 14.9882 8.08358C14.9442 8.15396 14.8563 8.21554 14.786 8.21554Z" fill="white"/>
<path d="M5.52936 4.59971C5.35355 4.59971 5.17773 4.58211 5.01071 4.55572C3.91187 4.42375 2.99764 3.85191 2.29438 2.86657C2.21526 2.76979 2.24163 2.62903 2.33833 2.56745C2.43503 2.49707 2.57568 2.52346 2.62843 2.62023C3.27894 3.5088 4.09648 4.01026 5.05466 4.14223C6.68095 4.35337 8.70282 3.47361 11.0499 1.53812C11.1378 1.45894 11.2697 1.47654 11.3576 1.55572C11.4279 1.6437 11.4191 1.77566 11.3312 1.86364C9.11598 3.68475 7.16444 4.59971 5.52936 4.59971Z" fill="white"/>
<path d="M12.2982 13.4589C11.1554 13.4589 10.3467 12.6584 9.40607 11.7434C8.50942 10.8548 7.49849 9.85191 5.92495 9.28006C3.43717 8.3739 2.04824 10.0631 1.3274 11.6202C1.28345 11.7346 1.16038 11.7786 1.0461 11.7346C0.940607 11.6818 0.887863 11.5587 0.940607 11.4531C2.07461 8.99853 3.8855 8.09238 6.0656 8.87537C7.72704 9.47361 8.77314 10.5117 9.71375 11.4355C10.6895 12.4032 11.4455 13.1598 12.5532 13.0279C12.6762 13.0103 12.7729 13.0982 12.7817 13.2038C12.7993 13.327 12.7114 13.4238 12.6059 13.4413C12.4916 13.4501 12.3949 13.4589 12.2982 13.4589Z" fill="white"/>
</svg>
