<svg width="13" height="16" viewBox="0 0 13 16" fill="none" xmlns="http://www.w3.org/2000/svg">
<path d="M6.5 0.5C4.18426 0.5 2.30023 2.38402 2.30023 4.69979V6.75623C2.30023 6.89627 2.41387 7.00982 2.55391 7.00982H3.96183C4.10187 7.00982 4.21543 6.89627 4.21543 6.75623V4.69979C4.21543 3.44009 5.24026 2.41522 6.49997 2.41522C7.75968 2.41522 8.78451 3.44009 8.78451 4.69979V6.75623C8.78451 6.89627 8.89818 7.00982 9.03825 7.00982H10.4462C10.5862 7.00982 10.6998 6.89627 10.6998 6.75623V4.69979C10.6998 2.38402 8.81577 0.5 6.5 0.5ZM10.1926 6.50264H9.29178V4.69979C9.29178 3.16042 8.0394 1.90804 6.50006 1.90804C4.96071 1.90804 3.70833 3.16042 3.70833 4.69979V6.50264H2.80751V4.69979C2.80751 2.66369 4.46395 1.00722 6.50003 1.00722C8.53613 1.00722 10.1926 2.66369 10.1926 4.69979V6.50264Z" fill="#C4C4C4"/>
<path d="M11.0302 6.50244H1.96986C1.36913 6.50244 0.880371 6.9912 0.880371 7.59193V14.4103C0.880371 15.011 1.36913 15.4998 1.96986 15.4998H11.0302C11.6309 15.4998 12.1196 15.011 12.1196 14.4103V7.59193C12.1196 6.9912 11.6309 6.50244 11.0302 6.50244ZM11.6125 14.4103C11.6125 14.7314 11.3513 14.9926 11.0302 14.9926H1.96986C1.64877 14.9926 1.38756 14.7314 1.38756 14.4103V7.59193C1.38756 7.27084 1.64877 7.00963 1.96986 7.00963H11.0302C11.3513 7.00963 11.6125 7.27084 11.6125 7.59193V14.4103Z" fill="#C4C4C4"/>
<path d="M7.35285 11.3332C7.64913 11.0836 7.82154 10.7186 7.82154 10.3264C7.82154 9.59773 7.22869 9.00488 6.49999 9.00488C5.77126 9.00488 5.17841 9.59773 5.17841 10.3264C5.17841 10.7186 5.35082 11.0836 5.64716 11.3333L5.36207 12.6915C5.34639 12.7664 5.36523 12.8442 5.4134 12.9035C5.46159 12.9628 5.53389 12.9973 5.61027 12.9973H7.3897C7.46611 12.9973 7.53842 12.9628 7.58655 12.9035C7.63469 12.8442 7.65352 12.7663 7.63785 12.6916L7.35285 11.3332ZM6.93511 11.0121C6.84604 11.0688 6.80136 11.1748 6.82307 11.2781L7.07737 12.49H5.92263L6.17699 11.2782C6.19867 11.1748 6.15408 11.0689 6.06496 11.0122C5.82742 10.861 5.68562 10.6046 5.68562 10.3265C5.68562 9.87743 6.05092 9.51213 6.49999 9.51213C6.94902 9.51213 7.31432 9.87743 7.31432 10.3265C7.31438 10.6047 7.17259 10.861 6.93511 11.0121Z" fill="#C4C4C4"/>
</svg>
