<svg width="15" height="16" viewBox="0 0 15 16" fill="none" xmlns="http://www.w3.org/2000/svg">
<g clip-path="url(#clip0_205_2702)">
<path d="M7.49997 0.5C5.18422 0.5 3.3002 2.38402 3.3002 4.69979V6.75623C3.3002 6.89627 3.41384 7.00982 3.55388 7.00982H4.9618C5.10184 7.00982 5.2154 6.89627 5.2154 6.75623V4.69979C5.2154 3.44009 6.24023 2.41522 7.49994 2.41522C8.75964 2.41522 9.78448 3.44009 9.78448 4.69979V6.75623C9.78448 6.89627 9.89815 7.00982 10.0382 7.00982H11.4461C11.5862 7.00982 11.6997 6.89627 11.6997 6.75623V4.69979C11.6998 2.38402 9.81574 0.5 7.49997 0.5ZM11.1926 6.50264H10.2918V4.69979C10.2918 3.16042 9.03937 1.90804 7.50003 1.90804C5.96068 1.90804 4.7083 3.16042 4.7083 4.69979V6.50264H3.80748V4.69979C3.80748 2.66369 5.46392 1.00722 7.5 1.00722C9.5361 1.00722 11.1926 2.66369 11.1926 4.69979V6.50264V6.50264Z" fill="#C4C4C4"/>
<path d="M12.0302 6.50244H2.96985C2.36912 6.50244 1.88036 6.9912 1.88036 7.59193V14.4103C1.88036 15.011 2.36912 15.4998 2.96985 15.4998H12.0302C12.6309 15.4998 13.1196 15.011 13.1196 14.4103V7.59193C13.1196 6.9912 12.6309 6.50244 12.0302 6.50244ZM12.6124 14.4103C12.6124 14.7314 12.3512 14.9926 12.0302 14.9926H2.96985C2.64875 14.9926 2.38754 14.7314 2.38754 14.4103V7.59193C2.38754 7.27084 2.64875 7.00963 2.96985 7.00963H12.0302C12.3512 7.00963 12.6124 7.27084 12.6124 7.59193V14.4103Z" fill="#C4C4C4"/>
<path d="M8.35283 11.3332C8.64911 11.0836 8.82153 10.7186 8.82153 10.3264C8.82153 9.59773 8.22867 9.00488 7.49997 9.00488C6.77124 9.00488 6.17839 9.59773 6.17839 10.3264C6.17839 10.7186 6.3508 11.0836 6.64714 11.3333L6.36205 12.6915C6.34638 12.7664 6.36522 12.8442 6.41338 12.9035C6.46157 12.9628 6.53388 12.9973 6.61026 12.9973H8.38969C8.4661 12.9973 8.5384 12.9628 8.58653 12.9035C8.63467 12.8442 8.65351 12.7663 8.63783 12.6916L8.35283 11.3332ZM7.93509 11.0121C7.84603 11.0688 7.80135 11.1748 7.82306 11.2781L8.07736 12.49H6.92262L7.17697 11.2782C7.19865 11.1748 7.15406 11.0689 7.06494 11.0122C6.8274 10.861 6.68561 10.6046 6.68561 10.3265C6.68561 9.87743 7.05091 9.51213 7.49997 9.51213C7.94901 9.51213 8.31431 9.87743 8.31431 10.3265C8.31437 10.6047 8.17257 10.861 7.93509 11.0121Z" fill="#C4C4C4"/>
</g>
<defs>
<clipPath id="clip0_205_2702">
<rect width="15" height="15" fill="white" transform="translate(0 0.5)"/>
</clipPath>
</defs>
</svg>
