<svg width="15" height="16" viewBox="0 0 15 16" fill="none" xmlns="http://www.w3.org/2000/svg">
<path d="M14.9919 12.4158C14.9546 11.5434 14.8051 10.5763 14.5809 9.666C14.3567 8.79365 14.0765 7.9782 13.7402 7.35239C12.4323 5.01981 11.0124 5.38012 9.31227 5.83526C8.77045 5.96801 8.19128 6.11972 7.59342 6.17661H7.40659C6.80872 6.11972 6.22955 5.96801 5.68774 5.83526C3.98757 5.39909 2.56765 5.01981 1.25983 7.37135C0.923536 7.99716 0.624606 8.81262 0.419091 9.68496C0.194894 10.5952 0.0454287 11.5624 0.00806238 12.4348C-0.0293039 13.4019 0.0641118 14.1036 0.269626 14.5967C0.475141 15.0518 0.774071 15.3363 1.16642 15.45C1.5214 15.5449 1.93243 15.5069 2.36214 15.3173C3.09078 15.0139 3.93152 14.3691 4.75358 13.5916C5.33276 13.0226 6.41638 12.7382 7.5 12.7382C8.58362 12.7382 9.66724 13.0226 10.2464 13.5916C11.0685 14.3691 11.9092 15.0139 12.6379 15.3173C13.0676 15.488 13.4786 15.5449 13.8336 15.45C14.2072 15.3363 14.5249 15.0708 14.7304 14.5777C14.9359 14.1036 15.0293 13.4019 14.9919 12.4158ZM14.0951 14.3122C13.9831 14.5777 13.8336 14.7294 13.6468 14.7863C13.4412 14.8432 13.1797 14.8053 12.8807 14.6915C12.2268 14.426 11.4608 13.8381 10.7135 13.1175C10.0035 12.3968 8.75177 12.0365 7.5 12.0365C6.24823 12.0365 4.99646 12.3968 4.26782 13.0795C3.50181 13.8002 2.7358 14.407 2.10057 14.6535C1.80164 14.7673 1.54008 14.8242 1.33457 14.7484C1.14773 14.6915 0.998269 14.5398 0.88617 14.2743C0.736705 13.9139 0.661972 13.3261 0.699338 12.4537C0.736705 11.6383 0.867487 10.709 1.09168 9.83668C1.2972 9.02122 1.55876 8.26266 1.87638 7.69374C2.90395 5.8163 4.09967 6.11972 5.51959 6.499C6.09876 6.65072 6.69663 6.80243 7.35054 6.85932C7.36922 6.85932 7.36922 6.85932 7.3879 6.85932H7.59342C7.6121 6.85932 7.6121 6.85932 7.63078 6.85932C8.30338 6.80243 8.90124 6.65072 9.48041 6.499C10.9003 6.13869 12.0961 5.8163 13.1236 7.69374C13.4412 8.26266 13.7028 9.00226 13.9083 9.83668C14.1138 10.709 14.2633 11.6193 14.3007 12.4537C14.338 13.3261 14.2633 13.9139 14.0951 14.3122Z" fill="white"/>
<path d="M5.78115 8.7178C5.59432 8.54712 5.37012 8.41437 5.10856 8.39541C5.08988 8.14888 4.97778 7.90234 4.80963 7.73167L4.79095 7.7127C4.58543 7.5041 4.32387 7.39031 4.02494 7.39031C3.72601 7.39031 3.44576 7.52306 3.25893 7.7127C3.09078 7.88338 2.96 8.12991 2.94132 8.39541C2.67975 8.41437 2.45555 8.52816 2.26872 8.69883L2.25004 8.7178C2.04452 8.9264 1.93243 9.1919 1.93243 9.49532C1.93243 9.79875 2.06321 10.0832 2.25004 10.2729C2.43687 10.4625 2.66107 10.5763 2.94132 10.5952C2.96 10.8607 3.0721 11.1073 3.25893 11.2779C3.46444 11.4865 3.72601 11.6003 4.02494 11.6003C4.32387 11.6003 4.60411 11.4676 4.79095 11.2779C4.95909 11.0883 5.08988 10.8607 5.10856 10.5952C5.37012 10.5763 5.613 10.4625 5.78115 10.2729C5.98667 10.0642 6.09877 9.79875 6.09877 9.49532C6.09877 9.1919 5.96798 8.90744 5.78115 8.7178ZM5.31407 9.77978C5.23934 9.85564 5.14593 9.89357 5.03383 9.89357H4.77226C4.58543 9.89357 4.41728 10.0453 4.41728 10.2539V10.5004C4.41728 10.6142 4.37992 10.709 4.30518 10.7849C4.23045 10.8607 4.13704 10.8987 4.02494 10.8987C3.91284 10.8987 3.81942 10.8607 3.74469 10.7849C3.66996 10.709 3.63259 10.6142 3.63259 10.5004V10.2349C3.63259 10.0453 3.48313 9.8746 3.27761 9.8746H3.01605C2.90395 9.8746 2.81053 9.83668 2.7358 9.76082C2.67975 9.70393 2.6237 9.60911 2.6237 9.49532C2.6237 9.38154 2.66107 9.28672 2.7358 9.21086C2.7358 9.21086 2.7358 9.21086 2.75448 9.1919C2.82922 9.13501 2.92263 9.09708 3.01605 9.09708H3.27761C3.46444 9.09708 3.63259 8.94537 3.63259 8.73676V8.47127C3.63259 8.35748 3.66996 8.26266 3.74469 8.1868C3.81942 8.11095 3.91284 8.07302 4.02494 8.07302C4.13704 8.07302 4.23045 8.11095 4.30518 8.1868C4.30518 8.1868 4.30518 8.1868 4.32387 8.20577C4.37992 8.28162 4.41728 8.37644 4.41728 8.47127V8.73676C4.41728 8.9264 4.56675 9.09708 4.77226 9.09708H5.03383C5.14593 9.09708 5.23934 9.13501 5.31407 9.21086C5.38881 9.28672 5.42617 9.38154 5.42617 9.49532C5.42617 9.60911 5.38881 9.70393 5.31407 9.77978Z" fill="white"/>
<path d="M10.7509 8.81262C11.112 8.81262 11.4048 8.51545 11.4048 8.14888C11.4048 7.7823 11.112 7.48513 10.7509 7.48513C10.3897 7.48513 10.097 7.7823 10.097 8.14888C10.097 8.51545 10.3897 8.81262 10.7509 8.81262Z" fill="white"/>
<path d="M10.7509 11.5055C11.112 11.5055 11.4048 11.2083 11.4048 10.8418C11.4048 10.4752 11.112 10.178 10.7509 10.178C10.3897 10.178 10.097 10.4752 10.097 10.8418C10.097 11.2083 10.3897 11.5055 10.7509 11.5055Z" fill="white"/>
<path d="M9.42436 10.1591C9.78551 10.1591 10.0783 9.8619 10.0783 9.49532C10.0783 9.12875 9.78551 8.83158 9.42436 8.83158C9.06322 8.83158 8.77045 9.12875 8.77045 9.49532C8.77045 9.8619 9.06322 10.1591 9.42436 10.1591Z" fill="white"/>
<path d="M12.0774 10.1591C12.4385 10.1591 12.7313 9.8619 12.7313 9.49532C12.7313 9.12875 12.4385 8.83158 12.0774 8.83158C11.7162 8.83158 11.4235 9.12875 11.4235 9.49532C11.4235 9.8619 11.7162 10.1591 12.0774 10.1591Z" fill="white"/>
</svg>
