<svg width="15" height="16" viewBox="0 0 15 16" fill="none" xmlns="http://www.w3.org/2000/svg">
<path d="M7.5 0.5C3.35791 0.5 0 3.85791 0 8C0 12.1421 3.35791 15.5 7.5 15.5C11.6421 15.5 15 12.1421 15 8C14.9954 3.85986 11.6401 0.504639 7.5 0.5ZM13.3082 4.09753L12.7885 6.30701L10.05 7.21973L7.75 5.38V2.66919L10.375 1.61926C11.5635 2.15771 12.5789 3.01563 13.3082 4.09753ZM13.35 11.8363L10.8707 12.2278L9.52075 10.4445L10.2085 7.69446L12.9165 6.79199L14.4678 8.65344C14.3621 9.79004 13.9781 10.8832 13.35 11.8363ZM4.14026 12.2295L1.65002 11.8363C1.02185 10.8829 0.638062 9.78955 0.532471 8.65271L2.08252 6.79126L4.79053 7.69373L5.47827 10.4452L4.14026 12.2295ZM0.502197 7.90674C0.515503 6.7915 0.796875 5.69568 1.32251 4.71204L1.72803 6.43701L0.502197 7.90674ZM5.94519 10.25L5.28198 7.59448L7.5 5.82019L9.71851 7.59521L9.05481 10.25H5.94519ZM13.272 6.43604L13.6775 4.71106C14.2031 5.6947 14.4845 6.79041 14.4978 7.90576L13.272 6.43604ZM9.69324 1.35376L7.5 2.23096L5.29504 1.35779C6.72229 0.88208 8.26514 0.880737 9.69324 1.35376ZM4.61304 1.625L7.25 2.67004V5.38L4.94995 7.21973L2.21155 6.30701L1.69177 4.09753C2.4187 3.01953 3.42969 2.16382 4.61304 1.625ZM2.06775 12.4084L4.09998 12.7295L5.32898 14.6545C4.04895 14.2341 2.91687 13.4545 2.06775 12.4084ZM6.04578 14.847L4.55396 12.5115L5.875 10.75H9.125L10.465 12.52L9.16504 14.7982C8.14246 15.05 7.07617 15.0671 6.04602 14.8483L6.04578 14.847ZM9.8595 14.5897L10.925 12.725L12.9332 12.4082C12.1265 13.4017 11.0636 14.156 9.8595 14.5897Z" fill="white"/>
</svg>
