<svg width="15" height="16" viewBox="0 0 15 16" fill="none" xmlns="http://www.w3.org/2000/svg">
<path d="M7.5 12.2628C3.29394 12.2628 0 10.5491 0 8.37383C0 6.19857 3.29394 4.5 7.5 4.5C11.7061 4.5 15 6.20159 15 8.37383C15 10.5461 11.7061 12.2628 7.5 12.2628ZM7.5 4.96462C3.61515 4.96462 0.454545 6.50027 0.454545 8.3859C0.454545 10.2715 3.61515 11.7981 7.5 11.7981C11.3848 11.7981 14.5455 10.2625 14.5455 8.37383C14.5455 6.48519 11.3848 4.95255 7.5 4.95255V4.96462Z" fill="white"/>
<path d="M7.5 15.5C3.29394 15.5 0 13.7984 0 11.6262V8.37383C1.27023e-09 8.31382 0.0239447 8.25627 0.0665666 8.21383C0.109189 8.1714 0.166996 8.14756 0.227273 8.14756C0.287549 8.14756 0.345357 8.1714 0.387979 8.21383C0.430601 8.25627 0.454545 8.31382 0.454545 8.37383C0.454545 10.2625 3.61515 11.7981 7.5 11.7981C11.3848 11.7981 14.5455 10.2625 14.5455 8.37383C14.5455 8.31382 14.5694 8.25627 14.612 8.21383C14.6546 8.1714 14.7125 8.14756 14.7727 8.14756C14.833 8.14756 14.8908 8.1714 14.9334 8.21383C14.9761 8.25627 15 8.31382 15 8.37383V11.6262C15 13.7984 11.7061 15.5 7.5 15.5ZM0.454545 9.73149V11.6262C0.454545 13.5118 3.61515 15.0474 7.5 15.0474C11.3848 15.0474 14.5455 13.5118 14.5455 11.6262V9.73149C13.503 11.2159 10.7788 12.2628 7.5 12.2628C4.22121 12.2628 1.49697 11.2159 0.454545 9.73149Z" fill="white"/>
</svg>
