<svg width="15" height="16" viewBox="0 0 15 16" fill="none" xmlns="http://www.w3.org/2000/svg">
<g clip-path="url(#clip0_205_2591)">
<path d="M9.25 9.25H8.975C8.87156 9.25019 8.77903 9.18566 8.7435 9.0885C8.713 9.0085 8.68025 8.93025 8.645 8.85275C8.60119 8.7585 8.62119 8.64691 8.695 8.57375L8.891 8.3775C9.18197 8.08397 9.18144 7.61059 8.88975 7.31775L8.18325 6.61125C7.89003 6.31975 7.41647 6.31975 7.12325 6.61125L6.92725 6.807C6.85394 6.88053 6.74253 6.9005 6.64825 6.857C6.57075 6.82175 6.4925 6.789 6.41225 6.757C6.31459 6.72172 6.24962 6.62884 6.25 6.525V6.25C6.25 5.83578 5.91422 5.5 5.5 5.5H4.5C4.08578 5.5 3.75 5.83578 3.75 6.25V6.525C3.75019 6.62844 3.68566 6.72097 3.5885 6.7565C3.5085 6.787 3.43025 6.81975 3.35275 6.855C3.25847 6.89859 3.14703 6.87862 3.07375 6.805L2.8775 6.609C2.58431 6.31769 2.11094 6.31769 1.81775 6.609L1.11125 7.31775C0.81975 7.61097 0.81975 8.08453 1.11125 8.37775L1.307 8.57375C1.38081 8.64691 1.40081 8.7585 1.357 8.85275C1.32175 8.93025 1.289 9.0085 1.25825 9.08875C1.22247 9.18647 1.12906 9.25106 1.025 9.25H0.75C0.335781 9.25 0 9.58578 0 10V11C0 11.4142 0.335781 11.75 0.75 11.75H1.025C1.12844 11.7498 1.22097 11.8143 1.2565 11.9115C1.287 11.9915 1.31975 12.0698 1.355 12.1473C1.39881 12.2415 1.37881 12.3531 1.305 12.4263L1.109 12.6225C0.817687 12.9157 0.817687 13.3891 1.109 13.6823L1.8155 14.3888C2.10872 14.6803 2.58228 14.6803 2.8755 14.3888L3.0715 14.193C3.14481 14.1195 3.25622 14.0995 3.3505 14.143C3.428 14.1782 3.50625 14.211 3.5865 14.243C3.68466 14.2779 3.75019 14.3708 3.75 14.475V14.75C3.75 15.1642 4.08578 15.5 4.5 15.5H5.5C5.91422 15.5 6.25 15.1642 6.25 14.75V14.475C6.24981 14.3716 6.31434 14.279 6.4115 14.2435C6.4915 14.213 6.56975 14.1803 6.64725 14.145C6.74153 14.1014 6.85297 14.1214 6.92625 14.195L7.1225 14.391C7.41609 14.6818 7.88934 14.6813 8.18225 14.3897L8.88875 13.6833C9.18025 13.39 9.18025 12.9165 8.88875 12.6233L8.693 12.4272C8.61919 12.3541 8.59919 12.2425 8.643 12.1482C8.67825 12.0707 8.711 11.9925 8.743 11.9122C8.77828 11.8146 8.87116 11.7496 8.975 11.75H9.25C9.66422 11.75 10 11.4142 10 11V10C10 9.58578 9.66422 9.25 9.25 9.25ZM9.5 11C9.5 11.1381 9.38806 11.25 9.25 11.25H8.975C8.66422 11.2512 8.38609 11.4432 8.275 11.7335C8.2485 11.8035 8.21984 11.8724 8.189 11.9403C8.06047 12.224 8.12009 12.5576 8.339 12.7793L8.5345 12.975C8.63219 13.0726 8.63228 13.2309 8.53469 13.3286C8.53462 13.3286 8.53456 13.3287 8.5345 13.3287L7.828 14.0352C7.73038 14.1328 7.57213 14.1328 7.4745 14.0352L7.2785 13.8395C7.05697 13.6204 6.72322 13.5607 6.4395 13.6895C6.37175 13.7202 6.30275 13.749 6.23325 13.7755C5.94322 13.8866 5.75125 14.1644 5.75 14.475V14.75C5.75 14.8881 5.63806 15 5.5 15H4.5C4.36194 15 4.25 14.8881 4.25 14.75V14.475C4.24884 14.1642 4.05675 13.8861 3.7665 13.775C3.6965 13.7485 3.62759 13.7198 3.55975 13.689C3.276 13.5605 2.94241 13.6202 2.72075 13.839L2.525 14.0345C2.42744 14.1322 2.26912 14.1323 2.17144 14.0347C2.17138 14.0346 2.17131 14.0346 2.17125 14.0345L1.46475 13.3287C1.36716 13.2311 1.36716 13.0729 1.46475 12.9753L1.6605 12.7793C1.87941 12.5576 1.93903 12.224 1.8105 11.9403C1.77975 11.8725 1.751 11.8035 1.7245 11.734C1.61369 11.4437 1.33575 11.2514 1.025 11.25H0.75C0.611937 11.25 0.5 11.1381 0.5 11V10C0.5 9.86194 0.611937 9.75 0.75 9.75H1.025C1.33578 9.74884 1.61391 9.55675 1.725 9.2665C1.7515 9.1965 1.78016 9.12759 1.811 9.05975C1.93953 8.776 1.87988 8.44237 1.661 8.22075L1.4645 8.025C1.36681 7.92744 1.36672 7.76912 1.46431 7.67144C1.46438 7.67137 1.46444 7.67131 1.4645 7.67125L2.171 6.96475C2.26863 6.86716 2.42687 6.86716 2.5245 6.96475L2.7205 7.1605C2.94203 7.37959 3.27578 7.43925 3.5595 7.3105C3.62725 7.27975 3.69625 7.251 3.76575 7.2245C4.05619 7.11378 4.24859 6.83581 4.25 6.525V6.25C4.25 6.11194 4.36194 6 4.5 6H5.5C5.63806 6 5.75 6.11194 5.75 6.25V6.525C5.75116 6.83578 5.94325 7.11391 6.2335 7.225C6.3035 7.2515 6.37241 7.28016 6.44025 7.311C6.72397 7.43975 7.05772 7.38009 7.27925 7.161L7.475 6.9655C7.573 6.86856 7.73075 6.86856 7.82875 6.9655L8.53525 7.672C8.63284 7.76962 8.63284 7.92787 8.53525 8.0255L8.3395 8.2215C8.12063 8.44312 8.06097 8.77675 8.1895 9.0605C8.22025 9.12825 8.249 9.19725 8.2755 9.26675C8.38656 9.55678 8.66444 9.74875 8.975 9.75H9.25C9.38806 9.75 9.5 9.86194 9.5 10V11V11Z" fill="#C4C4C4"/>
<path d="M7.245 10.4C7.2425 10.34 7.23825 10.2803 7.231 10.2208C7.223 10.1568 7.2135 10.0933 7.20025 10.031C7.1915 9.99025 7.18 9.95 7.169 9.9095C7.155 9.858 7.13925 9.80725 7.12175 9.75725C7.1095 9.7225 7.09675 9.688 7.08375 9.65375C7.05156 9.57369 7.01475 9.49553 6.9735 9.41975C6.97025 9.414 6.96825 9.40775 6.965 9.402C6.89997 9.28625 6.82466 9.17653 6.74 9.07425C6.73275 9.06525 6.7245 9.05675 6.717 9.048C6.6825 9.00725 6.647 8.96775 6.60975 8.93C6.59025 8.90975 6.56975 8.89075 6.54925 8.87125C6.52425 8.848 6.49925 8.825 6.47425 8.803C6.44391 8.77666 6.413 8.75116 6.3815 8.7265L6.3405 8.696C5.95366 8.40625 5.48331 8.24975 5 8.25C4.975 8.25 4.95 8.25375 4.925 8.25475C4.87175 8.25625 4.81825 8.25925 4.7645 8.26475C4.73625 8.26775 4.70775 8.271 4.6795 8.275C4.598 8.28572 4.51712 8.30084 4.43725 8.32025C3.23347 8.63131 2.50978 9.85938 2.82084 11.0632C3.02584 11.8564 3.64559 12.4757 4.439 12.68C4.443 12.68 4.44725 12.6813 4.4515 12.6823C4.53784 12.7038 4.62531 12.7205 4.7135 12.7323C4.77175 12.7395 4.83 12.741 4.8885 12.7438C4.9275 12.7458 4.9635 12.7515 5.00425 12.7515C5.0755 12.7515 5.1495 12.7468 5.225 12.7393C5.233 12.7393 5.241 12.737 5.25 12.736C5.31075 12.7293 5.37225 12.7203 5.435 12.7078C5.46 12.703 5.48325 12.6968 5.50725 12.6913C5.55125 12.681 5.595 12.6703 5.64 12.657C5.675 12.6465 5.709 12.6343 5.74325 12.6223C5.7775 12.6103 5.813 12.5973 5.8485 12.5838C5.884 12.5703 5.91375 12.5548 5.946 12.5398C5.988 12.5205 6.02975 12.5015 6.071 12.479H6.0725C6.30581 12.3541 6.52131 12.1985 6.71325 12.0163C6.76509 11.9679 6.81019 11.9127 6.84725 11.8523C7.04237 11.5394 7.17056 11.1896 7.22375 10.8248C7.23075 10.7765 7.237 10.7283 7.24075 10.679C7.24425 10.6338 7.24675 10.5888 7.24775 10.5438C7.24775 10.5295 7.24975 10.516 7.24975 10.5018C7.25 10.4665 7.2465 10.434 7.245 10.4ZM6.74675 10.5638C6.74675 10.5845 6.745 10.6053 6.74375 10.6258C6.73925 10.6863 6.7315 10.7468 6.72125 10.8075C6.62781 11.3273 6.30509 11.7773 5.84275 12.0325C5.81175 12.0488 5.78125 12.064 5.75075 12.078L5.73 12.088C5.58475 12.1539 5.43144 12.2003 5.274 12.226C5.263 12.2278 5.25175 12.2298 5.2405 12.2313C5.20925 12.2358 5.1785 12.2395 5.148 12.2423C5.10775 12.2458 5.06725 12.2478 5.026 12.2485C5.0085 12.2485 4.99125 12.2485 4.97375 12.2485C4.91459 12.2478 4.85553 12.2442 4.79675 12.2375L4.76675 12.234C4.698 12.225 4.62981 12.2122 4.5625 12.1955C3.62619 11.9558 3.06144 11.0025 3.30106 10.0662C3.45941 9.44753 3.94222 8.96422 4.56075 8.80525V8.805C4.70437 8.76878 4.85187 8.75028 5 8.75C5.07147 8.75041 5.14287 8.75525 5.21375 8.7645C5.23275 8.76675 5.2515 8.77025 5.27025 8.773C5.32425 8.7815 5.37775 8.79225 5.4305 8.80575C5.44775 8.81025 5.465 8.81425 5.482 8.819C5.61494 8.85738 5.74291 8.91125 5.86325 8.9795C5.8825 8.99075 5.90125 9.0025 5.92025 9.01425C5.95975 9.03925 5.998 9.06425 6.03575 9.09275C6.056 9.1075 6.0765 9.122 6.096 9.13775C6.14506 9.17694 6.19203 9.21866 6.23675 9.26275C6.2545 9.28075 6.27075 9.3005 6.288 9.31925C6.31675 9.3505 6.34475 9.3825 6.3715 9.41625C6.39 9.4395 6.40775 9.4635 6.42525 9.48775C6.45025 9.52375 6.47525 9.56125 6.49775 9.59925C6.51025 9.62 6.52275 9.64025 6.5355 9.6615C6.56775 9.72084 6.59647 9.78203 6.6215 9.84475C6.6315 9.86975 6.64 9.89475 6.649 9.91975C6.66525 9.96575 6.67925 10.0123 6.6915 10.0593C6.69775 10.0843 6.70475 10.1065 6.71 10.1308C6.72459 10.1983 6.73519 10.2667 6.74175 10.3355C6.74325 10.3538 6.74325 10.3723 6.7445 10.3905C6.748 10.448 6.749 10.5058 6.74675 10.5638Z" fill="#C4C4C4"/>
<path d="M14.25 5.75H13.4638C13.3589 5.75106 13.2651 5.68503 13.2308 5.586C13.1532 5.35378 13.0594 5.12728 12.95 4.90825C12.9036 4.81366 12.9229 4.69994 12.998 4.626L13.5555 4.06775C13.8481 3.77491 13.8481 3.30034 13.5555 3.0075L12.4925 1.94625C12.1997 1.65362 11.7251 1.65362 11.4323 1.94625L10.875 2.50325C10.8012 2.57831 10.6876 2.59775 10.593 2.5515C10.3739 2.44153 10.1474 2.34722 9.915 2.26925C9.81556 2.23522 9.74906 2.14134 9.75 2.03625V1.25C9.75 0.835781 9.41422 0.5 9 0.5H7.5C7.08578 0.5 6.75 0.835781 6.75 1.25V2.03625C6.75106 2.14109 6.68506 2.23488 6.586 2.26925C6.35375 2.34719 6.12725 2.44144 5.90825 2.55125C5.81366 2.59784 5.69987 2.5785 5.626 2.50325L5.06775 1.94575C4.77456 1.65397 4.30069 1.65397 4.0075 1.94575L2.9465 3.00675C2.65372 3.29963 2.65372 3.77438 2.9465 4.06725L3.76625 4.8885C3.86541 4.98456 4.02369 4.98206 4.11975 4.88287C4.21347 4.78612 4.21369 4.6325 4.12025 4.5355L3.3 3.7145C3.20241 3.61687 3.20241 3.45863 3.3 3.361L4.361 2.3C4.45862 2.20241 4.61687 2.20241 4.7145 2.3L5.273 2.8575C5.49897 3.08481 5.84522 3.14163 6.132 2.9985C6.33003 2.89934 6.53478 2.81422 6.74475 2.74375C7.04781 2.64116 7.25131 2.35622 7.25 2.03625V1.25C7.25 1.11194 7.36194 1 7.5 1H9C9.13806 1 9.25 1.11194 9.25 1.25V2.03625C9.24872 2.35616 9.45222 2.641 9.75525 2.7435C9.96531 2.814 10.1702 2.89919 10.3683 2.9985C10.6551 3.14088 11.0009 3.084 11.227 2.85725L11.7855 2.3C11.8831 2.20241 12.0414 2.20241 12.139 2.3L13.2 3.36125C13.2974 3.45884 13.2974 3.61691 13.2 3.7145L12.6425 4.273C12.4154 4.49909 12.3586 4.84519 12.5015 5.132C12.6007 5.33003 12.6858 5.53478 12.7563 5.74475C12.8588 6.04788 13.1438 6.25137 13.4638 6.25H14.25C14.3881 6.25 14.5 6.36194 14.5 6.5V8C14.5 8.13806 14.3881 8.25 14.25 8.25H13.4638C13.1438 8.24872 12.859 8.45222 12.7565 8.75525C12.686 8.96531 12.6008 9.17016 12.5015 9.36825C12.3589 9.65506 12.4158 10.001 12.6428 10.227L13.2002 10.7855C13.2978 10.8831 13.2978 11.0414 13.2002 11.139L12.1388 12.2C12.0412 12.2974 11.8831 12.2974 11.7855 12.2L10.964 11.3802C10.8679 11.2811 10.7097 11.2786 10.6105 11.3746C10.5113 11.4707 10.5088 11.629 10.6049 11.7281C10.6069 11.7302 10.6089 11.7323 10.611 11.7343L11.4323 12.554C11.7251 12.8466 12.1997 12.8466 12.4925 12.554L13.5535 11.4932C13.8463 11.2004 13.8463 10.7256 13.5535 10.4327L12.9968 9.875C12.9218 9.80112 12.9023 9.68759 12.9485 9.593C13.0585 9.37394 13.1528 9.14737 13.2308 8.915C13.2648 8.81556 13.3587 8.74906 13.4638 8.75H14.25C14.6642 8.75 15 8.41422 15 8V6.5C15 6.08578 14.6642 5.75 14.25 5.75Z" fill="#C4C4C4"/>
<path d="M10.548 4.95193C9.27807 3.68464 7.22194 3.68464 5.952 4.95193C5.8561 5.05124 5.85885 5.20952 5.95816 5.30543C6.05503 5.39899 6.20863 5.39899 6.3055 5.30543C7.37222 4.2243 9.11338 4.21264 10.1945 5.27936C11.2756 6.34608 11.2873 8.08724 10.2206 9.16836C10.2119 9.17711 10.2033 9.1858 10.1945 9.19443C10.0952 9.29036 10.0924 9.44861 10.1884 9.54793C10.2843 9.64724 10.4426 9.64999 10.5419 9.55405C10.5439 9.55205 10.546 9.54999 10.548 9.54793C11.8153 8.27799 11.8153 6.22186 10.548 4.95193Z" fill="#C4C4C4"/>
</g>
<defs>
<clipPath id="clip0_205_2591">
<rect width="15" height="15" fill="white" transform="translate(0 0.5)"/>
</clipPath>
</defs>
</svg>
