<svg width="12" height="14" viewBox="0 0 12 14" fill="none" xmlns="http://www.w3.org/2000/svg">
<path d="M0 7L1.2 5.83333H10.8L12 7V12.8333L10.8 14H1.2L0 12.8333V7ZM1.2 7V12.8333H10.8V7H1.2ZM9.6 5.83333V3.5C9.6 2.57174 9.22072 1.6815 8.54559 1.02513C7.87045 0.368749 6.95478 0 6 0C5.04522 0 4.12955 0.368749 3.45442 1.02513C2.77928 1.6815 2.4 2.57174 2.4 3.5V5.83333H3.6V3.5C3.6 2.88116 3.85286 2.28767 4.30294 1.85008C4.75303 1.4125 5.36348 1.16667 6 1.16667C6.63652 1.16667 7.24697 1.4125 7.69706 1.85008C8.14714 2.28767 8.4 2.88116 8.4 3.5V5.83333H9.6Z" fill="#C4C4C4"/>
</svg>
