<svg width="15" height="16" viewBox="0 0 15 16" fill="none" xmlns="http://www.w3.org/2000/svg">
<g clip-path="url(#clip0_205_2991)">
<path d="M15 6.28124C15 5.73936 14.6894 5.26373 14.2281 5.03123C14.3244 4.83936 14.375 4.62684 14.375 4.40624C14.375 3.86375 14.0643 3.38811 13.6025 3.15561C13.7444 2.87123 13.7868 2.54249 13.715 2.21685C13.5756 1.58375 12.98 1.12499 12.2994 1.12499L6.5625 1.12499C6.12876 1.12499 5.42813 1.265 4.90814 1.53312C4.69063 0.93125 4.11375 0.5 3.43752 0.5L1.56252 0.5C0.70125 0.5 6.13052e-08 1.20125 1.36597e-07 2.06249L5.73712e-07 7.0625C6.49004e-07 7.92374 0.701251 8.62499 1.56249 8.62499L4.6875 8.62499C4.86 8.62499 5.00001 8.48498 5.00001 8.31248L5.00001 8.1931L5.07501 8.2306L6.87501 12.1312L6.87501 14.25C6.87501 14.345 6.91814 14.4344 6.99188 14.4944C7.01189 14.51 7.47563 14.875 8.12499 14.875C8.84813 14.875 9.99999 13.7306 9.99999 12.375C9.99999 11.52 9.69375 10.4556 9.50312 9.875L13.3631 9.875C14.2044 9.875 14.92 9.25311 14.9931 8.45876C15.0344 8.01377 14.8856 7.58501 14.5937 7.26564C14.8506 7.00686 15 6.65685 15 6.28124ZM4.37499 7.68749C4.37499 7.68811 4.37499 7.68811 4.37499 7.68875C4.37499 7.68937 4.37499 7.68937 4.37499 7.69001L4.37499 8.00252L1.56249 8.00252C1.04561 8.00252 0.624991 7.5819 0.624991 7.06502L0.62499 2.06498C0.62499 1.5481 1.04561 1.12748 1.56249 1.12748L3.43749 1.12748C3.95438 1.12748 4.37499 1.5481 4.37499 2.06498L4.37499 7.68749ZM13.9262 7.51686C14.2331 7.70624 14.4038 8.045 14.3706 8.40186C14.3269 8.8775 13.8844 9.24998 13.3631 9.24998L9.06249 9.24998C8.95937 9.24998 8.86436 9.30122 8.80562 9.3856C8.74688 9.46997 8.73375 9.5781 8.77061 9.67373C8.77626 9.68937 9.375 11.2756 9.375 12.375C9.375 13.3981 8.4675 14.25 8.12499 14.25C7.85561 14.25 7.62938 14.1519 7.5 14.08L7.49939 14.08L7.49939 12.065C7.49939 12.02 7.4894 11.975 7.47065 11.9343L5.59565 7.87183C5.56626 7.80746 5.51564 7.75496 5.45189 7.72309L5.00001 7.49683L5.00001 2.21311C5.35002 1.95248 6.09814 1.75247 6.5625 1.75247L12.3006 1.75247C12.6906 1.75247 13.0294 2.00498 13.1062 2.35373C13.1681 2.6331 13.0856 2.90498 12.8794 3.09998C12.7906 3.18309 12.7588 3.30998 12.7975 3.42561C12.8356 3.5406 12.9375 3.6231 13.0581 3.63687C13.4525 3.68187 13.7506 4.01313 13.7506 4.4075C13.7506 4.62251 13.6631 4.82375 13.5037 4.97436C13.415 5.05748 13.3831 5.18436 13.4218 5.3C13.46 5.41499 13.5618 5.49749 13.6825 5.51126C14.0768 5.55626 14.375 5.88752 14.375 6.28188C14.375 6.57251 14.2112 6.8375 13.9475 6.97314C13.8475 7.02438 13.7825 7.12628 13.7781 7.23878C13.7731 7.35125 13.83 7.45748 13.9262 7.51686Z" fill="#C4C4C4"/>
</g>
<defs>
<clipPath id="clip0_205_2991">
<rect width="15" height="15" fill="white" transform="translate(0 0.5)"/>
</clipPath>
</defs>
</svg>
