<svg width="15" height="16" viewBox="0 0 15 16" fill="none" xmlns="http://www.w3.org/2000/svg">
<path d="M7.50201 0.5C3.50791 0.5 4.52843e-06 4.26401 4.52843e-06 8.54973V11.8653C-0.00102478 12.3758 0.17345 12.8688 0.490027 13.2498C0.806604 13.6309 1.24304 13.8733 1.71578 13.9306L11.6287 15.5C12.5228 15.5 13.3803 15.1189 14.0126 14.4405C14.6448 13.7621 15 12.842 15 11.8826V8.54973C14.9979 6.41625 14.2074 4.37075 12.8018 2.86175C11.3962 1.35275 9.49032 0.503423 7.50201 0.5ZM1.81624 13.0769C1.5381 13.044 1.28103 12.9022 1.09421 12.6787C0.907394 12.4552 0.803941 12.1656 0.803648 11.8653V8.54973C0.848416 6.65864 1.56851 4.85828 2.81512 3.52065C4.06173 2.18302 5.7396 1.41035 7.50201 1.36232C8.77849 1.36471 10.0277 1.75841 11.1027 2.49706C12.1776 3.23571 13.0335 4.28855 13.5695 5.53162L5.74605 4.86332C5.55722 4.84663 5.36721 4.87214 5.18804 4.93824C5.00886 5.00434 4.8444 5.1096 4.70506 5.24736C4.56572 5.38513 4.45452 5.5524 4.37849 5.73862C4.30246 5.92484 4.26325 6.12596 4.26333 6.32926V7.92886C4.26387 8.55995 4.4365 9.17709 4.75995 9.70419C5.08339 10.2313 5.54351 10.6453 6.08358 10.8952L13.0913 14.1462C12.6708 14.4626 12.1705 14.634 11.6568 14.6377L1.81624 13.0769ZM14.1964 11.8826C14.1959 12.4615 14.0259 13.0256 13.7102 13.4951L6.40102 10.1019C6.00795 9.91983 5.67262 9.61917 5.43579 9.23646C5.19897 8.85376 5.07084 8.40548 5.06697 7.94611V6.32926C5.06949 6.24781 5.08713 6.16772 5.11887 6.09368C5.15061 6.01965 5.19581 5.95315 5.25181 5.8981C5.35585 5.79534 5.49214 5.73838 5.63354 5.73857L13.891 6.44136C14.0483 7.13943 14.1504 7.85049 14.1964 8.56697V11.8826Z" fill="white"/>
<path d="M2.84892 8.94208C2.5302 8.93781 2.2175 9.03531 1.95055 9.2222C1.6836 9.40908 1.47447 9.67692 1.34973 9.99165C1.225 10.3064 1.19029 10.6538 1.25002 10.9898C1.30974 11.3257 1.46122 11.635 1.68518 11.8784C1.90914 12.1217 2.19548 12.2882 2.5078 12.3565C2.82012 12.4248 3.14431 12.3919 3.43918 12.262C3.73404 12.1322 3.98626 11.9111 4.16378 11.6271C4.34129 11.343 4.43609 11.0087 4.43611 10.6667C4.43615 10.213 4.26957 9.77759 3.97248 9.45477C3.67538 9.13195 3.27171 8.94775 2.84892 8.94208ZM2.84892 11.4945C2.68918 11.4988 2.53187 11.4519 2.3971 11.3598C2.26232 11.2677 2.1562 11.1346 2.09228 10.9774C2.02836 10.8203 2.00955 10.6463 2.03826 10.4776C2.06696 10.3089 2.14187 10.1533 2.25342 10.0305C2.36497 9.90774 2.50809 9.82345 2.66451 9.78839C2.82092 9.75333 2.98353 9.76911 3.13155 9.83369C3.27957 9.89828 3.40629 10.0087 3.49551 10.151C3.58474 10.2932 3.63242 10.4608 3.63247 10.6322C3.63254 10.8572 3.55063 11.0734 3.40424 11.2345C3.25784 11.3956 3.05856 11.4889 2.84892 11.4945Z" fill="white"/>
</svg>
