<svg width="13" height="16" viewBox="0 0 13 16" fill="none" xmlns="http://www.w3.org/2000/svg">
<path d="M6.49665 0.5C5.13472 0.5 3.82857 1.03876 2.86554 1.99775C1.90251 2.95674 1.36148 4.25742 1.36148 5.61364V9.60227L0.224897 11.3068C0.0886649 11.516 0.0113926 11.7578 0.00116601 12.0069C-0.00906059 12.256 0.0481344 12.5032 0.166766 12.7228C0.285398 12.9423 0.461105 13.1261 0.6755 13.2548C0.889895 13.3835 1.1351 13.4525 1.38544 13.4545H4.44258C4.44258 13.997 4.65899 14.5173 5.0442 14.9009C5.42942 15.2845 5.95188 15.5 6.49665 15.5C7.04142 15.5 7.56388 15.2845 7.9491 14.9009C8.33431 14.5173 8.55072 13.997 8.55072 13.4545H11.6079C11.8598 13.4537 12.1069 13.385 12.3228 13.2558C12.5388 13.1265 12.7156 12.9415 12.8345 12.7203C12.9535 12.4991 13.0102 12.25 12.9985 11.9994C12.9869 11.7487 12.9074 11.5059 12.7684 11.2966L11.6318 9.60227V5.61364C11.6318 4.25742 11.0908 2.95674 10.1278 1.99775C9.16473 1.03876 7.85858 0.5 6.49665 0.5ZM6.49665 14.8182C6.13347 14.8182 5.78516 14.6745 5.52835 14.4188C5.27154 14.1631 5.12727 13.8162 5.12727 13.4545H7.86603C7.86603 13.8162 7.72176 14.1631 7.46495 14.4188C7.20814 14.6745 6.85983 14.8182 6.49665 14.8182ZM12.1967 11.675C12.2761 11.7904 12.3179 11.9272 12.3165 12.067C12.3165 12.2542 12.2418 12.4337 12.1089 12.566C11.9761 12.6984 11.7958 12.7727 11.6079 12.7727H1.38544C1.1975 12.7727 1.01725 12.6984 0.884351 12.566C0.751453 12.4337 0.676792 12.2542 0.676792 12.067C0.675416 11.9272 0.717246 11.7904 0.796612 11.675L1.98797 9.89205C2.02541 9.83658 2.04565 9.77137 2.04617 9.70455V5.61364C2.04617 4.43825 2.51506 3.31099 3.34969 2.47987C4.18431 1.64874 5.31631 1.18182 6.49665 1.18182C7.67699 1.18182 8.80899 1.64874 9.64361 2.47987C10.4782 3.31099 10.9471 4.43825 10.9471 5.61364V9.70455C10.9477 9.77137 10.9679 9.83658 11.0053 9.89205L12.1967 11.675Z" fill="#C4C4C4"/>
</svg>
