<svg width="15" height="16" viewBox="0 0 15 16" fill="none" xmlns="http://www.w3.org/2000/svg">
<path d="M6.49717 3.5C5.34476 3.5 4.23956 3.93101 3.42469 4.6982C2.60981 5.46539 2.15202 6.50593 2.15202 7.59091V10.7818L1.1903 12.1455C1.07502 12.3128 1.00964 12.5062 1.00099 12.7055C0.992333 12.9048 1.04073 13.1026 1.14111 13.2782C1.24149 13.4538 1.39017 13.6008 1.57158 13.7038C1.75299 13.8068 1.96047 13.862 2.1723 13.8636H4.75911C4.75911 14.2976 4.94222 14.7138 5.26817 15.0207C5.59412 15.3276 6.0362 15.5 6.49717 15.5C6.95813 15.5 7.40021 15.3276 7.72616 15.0207C8.05211 14.7138 8.23522 14.2976 8.23522 13.8636H10.822C11.0352 13.863 11.2443 13.808 11.427 13.7046C11.6097 13.6012 11.7593 13.4532 11.86 13.2762C11.9607 13.0993 12.0086 12.9 11.9987 12.6995C11.9889 12.499 11.9216 12.3047 11.804 12.1373L10.8423 10.7818V7.59091C10.8423 6.50593 10.3845 5.46539 9.56965 4.6982C8.75477 3.93101 7.64957 3.5 6.49717 3.5ZM6.49717 14.9545C6.18986 14.9545 5.89514 14.8396 5.67784 14.635C5.46054 14.4304 5.33846 14.153 5.33846 13.8636H7.65587C7.65587 14.153 7.53379 14.4304 7.31649 14.635C7.09919 14.8396 6.80447 14.9545 6.49717 14.9545ZM11.3203 12.44C11.3874 12.5323 11.4228 12.6418 11.4217 12.7536C11.4217 12.9034 11.3585 13.047 11.246 13.1528C11.1336 13.2587 10.9811 13.3182 10.822 13.3182H2.1723C2.01327 13.3182 1.86075 13.2587 1.7483 13.1528C1.63584 13.047 1.57267 12.9034 1.57267 12.7536C1.57151 12.6418 1.6069 12.5323 1.67406 12.44L2.68213 11.0136C2.71381 10.9693 2.73093 10.9171 2.73137 10.8636V7.59091C2.73137 6.6506 3.12813 5.7488 3.83435 5.08389C4.54057 4.41899 5.49842 4.04545 6.49717 4.04545C7.49592 4.04545 8.45376 4.41899 9.15998 5.08389C9.8662 5.7488 10.263 6.6506 10.263 7.59091V10.8636C10.2634 10.9171 10.2805 10.9693 10.3122 11.0136L11.3203 12.44Z" fill="#C4C4C4"/>
<path d="M13.889 2.56498L13.3155 2.42394C13.281 2.31521 13.2367 2.20979 13.1831 2.10894C13.2693 1.9656 13.4502 1.66391 13.4502 1.66391C13.4848 1.60626 13.4757 1.53244 13.4282 1.48495L13.0139 1.07067C12.9664 1.02304 12.8928 1.01389 12.835 1.04864L12.3892 1.31572C12.2889 1.26265 12.1841 1.21873 12.0761 1.18454L11.935 0.611016C11.9187 0.545781 11.8602 0.5 11.793 0.5H11.207C11.1398 0.5 11.0811 0.545781 11.065 0.611006C11.065 0.611006 10.9673 1.0113 10.9241 1.18439C10.8089 1.22087 10.6976 1.26822 10.5916 1.32602L10.1294 1.04864C10.0716 1.01431 9.99811 1.02318 9.95047 1.07067L9.53619 1.48495C9.4887 1.53244 9.47954 1.60626 9.51416 1.66391L9.79998 2.14127C9.75392 2.23211 9.71529 2.32666 9.68454 2.42351L9.11102 2.56498C9.04578 2.58129 9 2.63979 9 2.70703V3.29297C9 3.36021 9.04578 3.41886 9.11101 3.43502L9.68468 3.57606C9.71944 3.68636 9.76464 3.79351 9.81943 3.89636L9.56366 4.32265C9.52904 4.38029 9.5382 4.45411 9.58569 4.5016L9.99997 4.91588C10.0473 4.96323 10.1211 4.97224 10.1789 4.93791C10.1789 4.93791 10.4657 4.76597 10.6062 4.68185C10.7079 4.73606 10.8144 4.78084 10.9241 4.8156L11.065 5.38898C11.0811 5.45423 11.1398 5.5 11.207 5.5H11.793C11.8602 5.5 11.9187 5.45422 11.935 5.38899L12.0759 4.81561C12.1888 4.77984 12.2975 4.73363 12.4009 4.67756C12.5453 4.7641 12.835 4.93791 12.835 4.93791C12.8926 4.97238 12.9664 4.96352 13.0139 4.91588L13.4282 4.5016C13.4757 4.45411 13.4848 4.38029 13.4502 4.32265L13.1869 3.88391C13.2388 3.78534 13.2818 3.68221 13.3155 3.57606L13.889 3.43502C13.9542 3.41871 14 3.36021 14 3.29297V2.70703C14 2.63979 13.9542 2.58129 13.889 2.56498ZM11.5 4.02539C10.9347 4.02539 10.4746 3.56534 10.4746 3C10.4746 2.43466 10.9347 1.97461 11.5 1.97461C12.0653 1.97461 12.5254 2.43466 12.5254 3C12.5254 3.56534 12.0653 4.02539 11.5 4.02539Z" fill="#C4C4C4"/>
</svg>
