<svg width="15" height="16" viewBox="0 0 15 16" fill="none" xmlns="http://www.w3.org/2000/svg">
<g>
<path d="M7.75939 8.49365C7.75932 8.42488 7.73196 8.35895 7.68333 8.31032C7.63471 8.26169 7.56877 8.23434 7.5 8.23426C7.32749 8.23428 7.16058 8.17304 7.02902 8.06146C6.89746 7.94988 6.80979 7.7952 6.78165 7.62501C6.7535 7.45481 6.78671 7.28015 6.87535 7.13216C6.96398 6.98416 7.10229 6.87245 7.26562 6.81693V6.54245C7.26562 6.48029 7.29032 6.42068 7.33427 6.37672C7.37823 6.33277 7.43784 6.30808 7.5 6.30808C7.56216 6.30808 7.62177 6.33277 7.66573 6.37672C7.70968 6.42068 7.73438 6.48029 7.73438 6.54245V6.81693C7.87824 6.86601 8.00317 6.95883 8.0917 7.08239C8.18024 7.20596 8.22794 7.35411 8.22814 7.50611C8.22814 7.56827 8.20345 7.62789 8.1595 7.67184C8.11554 7.7158 8.05593 7.74049 7.99377 7.74049C7.93161 7.74049 7.872 7.7158 7.82804 7.67184C7.78409 7.62789 7.75939 7.56827 7.75939 7.50611C7.75939 7.45481 7.74418 7.40466 7.71568 7.362C7.68718 7.31934 7.64666 7.2861 7.59927 7.26646C7.55187 7.24683 7.49971 7.24169 7.44939 7.2517C7.39908 7.26171 7.35286 7.28642 7.31658 7.32269C7.2803 7.35897 7.2556 7.40519 7.24559 7.45551C7.23558 7.50583 7.24072 7.55798 7.26035 7.60538C7.27998 7.65278 7.31323 7.69329 7.35589 7.72179C7.39855 7.75029 7.4487 7.76551 7.5 7.76551C7.67251 7.76549 7.83942 7.82673 7.97098 7.93831C8.10254 8.04989 8.19021 8.20456 8.21835 8.37476C8.2465 8.54495 8.21329 8.71962 8.12465 8.86761C8.03602 9.0156 7.89771 9.12732 7.73438 9.18283V9.45731C7.73438 9.51947 7.70968 9.57909 7.66573 9.62304C7.62177 9.667 7.56216 9.69169 7.5 9.69169C7.43784 9.69169 7.37823 9.667 7.33427 9.62304C7.29032 9.57909 7.26562 9.51947 7.26562 9.45731V9.18283C7.12176 9.13375 6.99683 9.04094 6.9083 8.91737C6.81976 8.7938 6.77206 8.64566 6.77186 8.49365C6.77186 8.43149 6.79655 8.37188 6.8405 8.32792C6.88446 8.28397 6.94407 8.25928 7.00623 8.25928C7.06839 8.25928 7.128 8.28397 7.17196 8.32792C7.21591 8.37188 7.24061 8.43149 7.24061 8.49365C7.24061 8.56245 7.26793 8.62843 7.31658 8.67707C7.36523 8.72572 7.4312 8.75305 7.5 8.75305C7.5688 8.75305 7.63477 8.72572 7.68342 8.67707C7.73207 8.62843 7.75939 8.56245 7.75939 8.49365V8.49365ZM5.13108 7.99988C5.13108 7.53136 5.27002 7.07335 5.53032 6.68378C5.79062 6.29422 6.16059 5.99059 6.59345 5.81129C7.02632 5.63199 7.50263 5.58508 7.96215 5.67649C8.42168 5.76789 8.84378 5.99351 9.17508 6.32481C9.50638 6.65611 9.73199 7.07821 9.8234 7.53773C9.9148 7.99725 9.86789 8.47356 9.68859 8.90643C9.5093 9.33929 9.20567 9.70927 8.8161 9.96956C8.42653 10.2299 7.96853 10.3688 7.5 10.3688C6.87194 10.3681 6.26981 10.1183 5.8257 9.67418C5.3816 9.23008 5.13179 8.62794 5.13108 7.99988V7.99988ZM5.59983 7.99988C5.59983 8.3757 5.71128 8.74308 5.92007 9.05556C6.12886 9.36804 6.42563 9.61159 6.77284 9.75541C7.12005 9.89923 7.50211 9.93686 7.8707 9.86354C8.2393 9.79022 8.57788 9.60925 8.84362 9.3435C9.10936 9.07776 9.29034 8.73918 9.36366 8.37059C9.43697 8.00199 9.39934 7.61993 9.25552 7.27272C9.11171 6.92551 8.86816 6.62875 8.55568 6.41995C8.24319 6.21116 7.87582 6.09972 7.5 6.09972C6.99622 6.10028 6.51323 6.30066 6.157 6.65689C5.80078 7.01312 5.6004 7.4961 5.59983 7.99988V7.99988ZM15 4.24268V11.7571C15 11.8193 14.9753 11.8789 14.9314 11.9228C14.8874 11.9668 14.8278 11.9915 14.7656 11.9915H0.234375C0.172215 11.9915 0.112601 11.9668 0.0686469 11.9228C0.024693 11.8789 0 11.8193 0 11.7571V4.24268C0 4.18052 0.024693 4.1209 0.0686469 4.07695C0.112601 4.03299 0.172215 4.0083 0.234375 4.0083H14.7656C14.8278 4.0083 14.8874 4.03299 14.9314 4.07695C14.9753 4.1209 15 4.18052 15 4.24268V4.24268ZM14.5312 4.47705H0.46875V11.5227H14.5312V4.47705ZM0.94875 9.78304V6.21673C0.94875 6.15457 0.973443 6.09495 1.0174 6.051C1.06135 6.00705 1.12096 5.98235 1.18312 5.98235C1.39285 5.98214 1.59392 5.89873 1.74222 5.75043C1.89051 5.60213 1.97392 5.40106 1.97414 5.19134C1.97414 5.12918 1.99883 5.06956 2.04279 5.02561C2.08674 4.98166 2.14636 4.95696 2.20852 4.95696H12.7915C12.8537 4.95696 12.9133 4.98166 12.9573 5.02561C13.0012 5.06956 13.0259 5.12918 13.0259 5.19134C13.0261 5.40106 13.1095 5.60213 13.2578 5.75043C13.4061 5.89873 13.6072 5.98214 13.8169 5.98235C13.8791 5.98235 13.9387 6.00705 13.9827 6.051C14.0266 6.09495 14.0513 6.15457 14.0513 6.21673V9.78304C14.0513 9.8452 14.0266 9.90481 13.9827 9.94877C13.9387 9.99272 13.8791 10.0174 13.8169 10.0174C13.6072 10.0176 13.4061 10.101 13.2578 10.2493C13.1095 10.3976 13.0261 10.5987 13.0259 10.8084C13.0259 10.8706 13.0012 10.9302 12.9573 10.9742C12.9133 11.0181 12.8537 11.0428 12.7915 11.0428H2.20843C2.14627 11.0428 2.08665 11.0181 2.0427 10.9742C1.99875 10.9302 1.97405 10.8706 1.97405 10.8084C1.97384 10.5987 1.89043 10.3976 1.74213 10.2493C1.59383 10.101 1.39276 10.0176 1.18304 10.0174C1.12089 10.0174 1.0613 9.99269 1.01737 9.94873C0.973431 9.90478 0.94875 9.84518 0.94875 9.78304V9.78304ZM1.4175 9.57052C1.666 9.61808 1.8945 9.73915 2.07341 9.91806C2.25231 10.097 2.37339 10.3255 2.42095 10.574H12.579C12.6266 10.3255 12.7477 10.097 12.9266 9.91806C13.1055 9.73915 13.334 9.61808 13.5825 9.57052V6.42925C13.334 6.38169 13.1055 6.26062 12.9266 6.08171C12.7477 5.9028 12.6266 5.6743 12.579 5.4258H2.42095C2.37339 5.6743 2.25231 5.9028 2.07341 6.08171C1.8945 6.26061 1.666 6.38169 1.4175 6.42925V9.57052Z" fill="#C4C4C4"/>
</g>
</svg>
