<svg width="15" height="16" viewBox="0 0 15 16" fill="none" xmlns="http://www.w3.org/2000/svg">
<g clip-path="url(#clip0_205_2821)">
<path d="M13.4375 3H1.56249C0.70125 3 0 3.70125 0 4.56252V11.4375C0 12.2988 0.70125 13 1.56249 13H13.4375C14.2987 13 15 12.2988 15 11.4375V4.56252C15 3.70125 14.2987 3 13.4375 3ZM14.375 11.4375C14.375 11.9544 13.9544 12.375 13.4375 12.375H1.56249C1.04561 12.375 0.62499 11.9544 0.62499 11.4375V4.56252C0.62499 4.04563 1.04561 3.62502 1.56249 3.62502H13.4375C13.9544 3.62502 14.375 4.04563 14.375 4.56252V11.4375H14.375Z" fill="#C4C4C4"/>
<path d="M14.6875 4.875H0.31251C0.14001 4.875 0 5.01501 0 5.18751V7.06251C0 7.23501 0.14001 7.37502 0.31251 7.37502H14.6875C14.86 7.37502 15 7.23501 15 7.06251V5.18751C15 5.01501 14.86 4.875 14.6875 4.875ZM14.375 6.75H0.62499V5.49999H14.375V6.75H14.375Z" fill="#C4C4C4"/>
<path d="M5.93751 9.25H2.18751C2.01501 9.25 1.875 9.39001 1.875 9.56251C1.875 9.73501 2.01501 9.87499 2.18751 9.87499H5.93751C6.11001 9.87499 6.25002 9.73498 6.25002 9.56248C6.25002 9.38998 6.11001 9.25 5.93751 9.25Z" fill="#C4C4C4"/>
<path d="M5.93751 10.5H2.18751C2.01501 10.5 1.875 10.64 1.875 10.8125C1.875 10.985 2.01501 11.125 2.18751 11.125H5.93751C6.11001 11.125 6.25002 10.985 6.25002 10.8125C6.24999 10.64 6.11001 10.5 5.93751 10.5Z" fill="#C4C4C4"/>
<path d="M12.1875 8.625H11.5625C11.0456 8.625 10.625 9.04562 10.625 9.5625V10.1875C10.625 10.7044 11.0456 11.125 11.5625 11.125H12.1875C12.7044 11.125 13.125 10.7044 13.125 10.1875V9.5625C13.125 9.04564 12.7044 8.625 12.1875 8.625ZM12.5 10.1875C12.5 10.36 12.36 10.5 12.1875 10.5H11.5625C11.39 10.5 11.25 10.36 11.25 10.1875V9.56253C11.25 9.39003 11.39 9.25002 11.5625 9.25002H12.1875C12.36 9.25002 12.5 9.39003 12.5 9.56253V10.1875Z" fill="#C4C4C4"/>
</g>
<defs>
<clipPath id="clip0_205_2821">
<rect width="15" height="15" fill="white" transform="translate(0 0.5)"/>
</clipPath>
</defs>
</svg>
