<svg width="15" height="16" viewBox="0 0 15 16" fill="none" xmlns="http://www.w3.org/2000/svg">
<g clip-path="url(#clip0_205_2632)">
<path d="M8.2 15.5H6.8C6.32688 15.5 5.9275 15.1456 5.87125 14.675L5.72187 13.5025C5.42375 13.4056 5.13625 13.2863 4.86313 13.1469L3.92938 13.8725C3.55063 14.1656 3.0175 14.1319 2.68875 13.7938L1.70437 12.8094C1.36875 12.4837 1.335 11.9506 1.62813 11.5725L2.35375 10.6381C2.21375 10.365 2.09438 10.0775 1.99813 9.77938L0.823125 9.63C0.354375 9.5725 0 9.17312 0 8.7V7.3C0 6.82688 0.354375 6.4275 0.825 6.37125L1.9975 6.22187C2.09438 5.92375 2.21375 5.63625 2.35313 5.36313L1.62813 4.42938C1.33438 4.05063 1.36875 3.51688 1.7075 3.18813L2.69188 2.20375C3.0175 1.86813 3.55125 1.835 3.92875 2.1275L4.8625 2.85375C5.13563 2.71438 5.42312 2.595 5.72187 2.49813L5.87125 1.32313C5.9275 0.854375 6.32688 0.5 6.8 0.5H8.2C8.67312 0.5 9.0725 0.854375 9.12875 1.325L9.27813 2.4975C9.57688 2.59438 9.86437 2.71375 10.1375 2.85313L11.0713 2.1275C11.4506 1.83438 11.9831 1.86812 12.3119 2.20687L13.2963 3.19125C13.6319 3.51688 13.6656 4.05 13.3725 4.42812L12.6469 5.3625C12.7869 5.63563 12.9063 5.92313 13.0025 6.22125L14.1775 6.37062C14.6456 6.4275 15 6.82688 15 7.3V8.7C15 9.17312 14.6456 9.5725 14.175 9.62875L13.0025 9.77813C12.9056 10.0763 12.7863 10.3637 12.6469 10.6369L13.3725 11.5706C13.6662 11.9494 13.6319 12.4825 13.2931 12.8112L12.3088 13.7956C11.9831 14.1313 11.4494 14.1656 11.0719 13.8719L10.1375 13.1462C9.86437 13.2862 9.57687 13.4056 9.27875 13.5019L9.12938 14.6769C9.0725 15.1456 8.67312 15.5 8.2 15.5V15.5ZM4.83125 12.4625C4.88313 12.4625 4.93625 12.4756 4.98375 12.5019C5.32812 12.6944 5.70125 12.8494 6.0925 12.9619C6.2125 12.9962 6.30062 13.0988 6.31625 13.2225L6.49125 14.5975C6.51 14.7544 6.64563 14.875 6.8 14.875H8.2C8.35437 14.875 8.49 14.7544 8.50812 14.6006L8.68375 13.2231C8.69938 13.0994 8.7875 12.9969 8.9075 12.9625C9.29875 12.85 9.67187 12.695 10.0162 12.5025C10.1256 12.4413 10.2619 12.4519 10.36 12.5288L11.4538 13.3788C11.5794 13.4763 11.7556 13.4681 11.8631 13.3575L12.8537 12.3669C12.9669 12.2569 12.9756 12.0806 12.8781 11.9544L12.0281 10.8606C11.9513 10.7619 11.9406 10.6263 12.0019 10.5169C12.1944 10.1725 12.3494 9.79938 12.4619 9.40813C12.4962 9.28813 12.5988 9.2 12.7225 9.18438L14.0975 9.00937C14.2544 8.99 14.375 8.85437 14.375 8.7V7.3C14.375 7.14563 14.2544 7.01 14.1006 6.99188L12.7231 6.81625C12.5994 6.80062 12.4969 6.7125 12.4625 6.5925C12.35 6.20125 12.195 5.82812 12.0025 5.48375C11.9413 5.37437 11.9513 5.23875 12.0288 5.14L12.8788 4.04625C12.9769 3.92 12.9681 3.74375 12.8581 3.6375L11.8675 2.64687C11.7581 2.53312 11.5812 2.52437 11.455 2.6225L10.3612 3.4725C10.2619 3.54938 10.1263 3.56 10.0169 3.49875C9.67375 3.30625 9.30063 3.15187 8.90813 3.03875C8.78813 3.00437 8.7 2.90187 8.68438 2.77812L8.50937 1.40313C8.49 1.24563 8.35437 1.125 8.2 1.125H6.8C6.64563 1.125 6.51 1.24563 6.49188 1.39938L6.31625 2.77687C6.30062 2.90062 6.2125 3.00312 6.0925 3.03812C5.7 3.15062 5.32688 3.30562 4.98375 3.4975C4.87437 3.55938 4.73875 3.54813 4.63937 3.47188L3.54562 2.62187C3.41937 2.52375 3.24375 2.5325 3.13688 2.6425L2.14625 3.63375C2.03313 3.74375 2.02437 3.92 2.12187 4.04625L2.97188 5.14C3.04875 5.23875 3.05937 5.37437 2.99812 5.48375C2.805 5.82812 2.65062 6.20125 2.53812 6.5925C2.50375 6.7125 2.40125 6.80062 2.2775 6.81625L0.9025 6.99125C0.745625 7.01 0.625 7.14563 0.625 7.3V8.7C0.625 8.85437 0.745625 8.99 0.899375 9.00812L2.27687 9.18375C2.40062 9.19938 2.50312 9.2875 2.5375 9.4075C2.65 9.79875 2.805 10.1719 2.9975 10.5162C3.05875 10.6256 3.04875 10.7613 2.97125 10.86L2.12125 11.9538C2.02313 12.08 2.03188 12.2562 2.14188 12.3625L3.1325 13.3531C3.24188 13.4663 3.4175 13.475 3.545 13.3775L4.63875 12.5275C4.69562 12.485 4.76313 12.4625 4.83125 12.4625V12.4625Z" fill="#C4C4C4"/>
<path d="M7.5 11.125C5.77688 11.125 4.375 9.72313 4.375 8C4.375 6.27688 5.77688 4.875 7.5 4.875C9.22313 4.875 10.625 6.27688 10.625 8C10.625 9.72313 9.22313 11.125 7.5 11.125ZM7.5 5.5C6.12125 5.5 5 6.62125 5 8C5 9.37875 6.12125 10.5 7.5 10.5C8.87875 10.5 10 9.37875 10 8C10 6.62125 8.87875 5.5 7.5 5.5Z" fill="#C4C4C4"/>
</g>
<defs>
<clipPath id="clip0_205_2632">
<rect width="15" height="15" fill="white" transform="translate(0 0.5)"/>
</clipPath>
</defs>
</svg>
