<svg width="17" height="17" viewBox="0 0 17 17" fill="none" xmlns="http://www.w3.org/2000/svg">
<path d="M7.80562 1.47473C8.04561 0.841757 8.95382 0.841757 9.19456 1.47473L10.747 5.77504C10.8011 5.91512 10.8965 6.03549 11.0205 6.12024C11.1445 6.205 11.2913 6.25016 11.4415 6.24977H15.2565C15.9615 6.24977 16.269 7.12723 15.7148 7.55696L12.9999 9.9996C12.8783 10.0931 12.7894 10.2227 12.746 10.3698C12.7026 10.517 12.707 10.6741 12.7584 10.8186L13.7499 15.0206C13.9913 15.6956 13.2099 16.2753 12.6189 15.8598L8.93132 13.5199C8.80504 13.4312 8.65444 13.3836 8.50009 13.3836C8.34574 13.3836 8.19514 13.4312 8.06886 13.5199L4.38127 15.8598C3.79105 16.2753 3.00883 15.6948 3.25032 15.0206L4.24178 10.8186C4.29321 10.6741 4.29755 10.517 4.25416 10.3698C4.21078 10.2227 4.1219 10.0931 4.00029 9.9996L1.28541 7.55696C0.730436 7.12723 1.03942 6.24977 1.74289 6.24977H5.55797C5.70818 6.25027 5.85501 6.20515 5.97902 6.12038C6.10302 6.03561 6.19837 5.91518 6.25244 5.77504L7.80562 1.47473Z" fill="#842448" stroke="#842448" stroke-linecap="round" stroke-linejoin="round"/>
</svg>
