<svg width="17" height="17" viewBox="0 0 17 17" fill="none" xmlns="http://www.w3.org/2000/svg">
<path d="M7.80562 1.47474C8.04561 0.841752 8.95382 0.841752 9.19456 1.47474L10.747 5.77518C10.8011 5.91527 10.8965 6.03564 11.0205 6.12039C11.1445 6.20515 11.2913 6.25032 11.4415 6.24992H15.2565C15.9615 6.24992 16.269 7.12741 15.7148 7.55715L12.9999 9.99986C12.8783 10.0934 12.7894 10.223 12.746 10.3701C12.7026 10.5172 12.707 10.6743 12.7584 10.8189L13.7499 15.021C13.9913 15.696 13.2099 16.2758 12.6189 15.8603L8.93132 13.5203C8.80504 13.4316 8.65444 13.3839 8.50009 13.3839C8.34574 13.3839 8.19514 13.4316 8.06886 13.5203L4.38127 15.8603C3.79105 16.2758 3.00883 15.6953 3.25032 15.021L4.24178 10.8189C4.29321 10.6743 4.29755 10.5172 4.25416 10.3701C4.21078 10.223 4.1219 10.0934 4.00029 9.99986L1.28541 7.55715C0.730436 7.12741 1.03942 6.24992 1.74289 6.24992H5.55797C5.70818 6.25042 5.85501 6.2053 5.97902 6.12053C6.10302 6.03575 6.19837 5.91533 6.25244 5.77518L7.80562 1.47474Z" fill="#E7852A" stroke="#E7852A" stroke-linecap="round" stroke-linejoin="round"/>
</svg>
