<svg width="15" height="16" viewBox="0 0 15 16" fill="none" xmlns="http://www.w3.org/2000/svg">
<path d="M13.5024 1.97389C11.7912 0.280906 8.88192 0.0236426 6.3703 1.32022C5.91168 0.92882 5.33443 0.7136 4.72278 0.7136C4.04713 0.7136 3.4117 0.973866 2.93412 1.44685C1.95542 2.41484 1.9491 3.98495 2.91262 4.9622C2.71025 5.45721 2.59111 5.96023 2.5562 6.46524C2.55165 6.48326 2.54583 6.50103 2.54482 6.52005C2.52913 6.79133 2.5395 7.06235 2.57239 7.33238C2.57264 7.33363 2.57264 7.33488 2.57264 7.33589C2.59237 7.4973 2.62146 7.65822 2.65839 7.81863C2.66219 7.83515 2.66598 7.85166 2.67003 7.86818C2.70721 8.02209 2.75148 8.17524 2.80435 8.32765C2.81093 8.34692 2.81877 8.36619 2.8256 8.38546C2.88125 8.54012 2.94297 8.69403 3.01481 8.84693C3.21161 9.26536 3.26575 9.71182 3.1676 10.1042C3.15748 10.1448 3.14357 10.1828 3.13168 10.2223C3.11625 10.2741 3.10259 10.3272 3.08437 10.3773C3.06717 10.4251 3.04542 10.4698 3.02543 10.5159C3.00849 10.5554 2.99382 10.5962 2.97484 10.6348C2.94929 10.6871 2.91869 10.7366 2.88934 10.7869C2.87189 10.8167 2.85697 10.848 2.8385 10.8773C2.8041 10.9313 2.76438 10.9826 2.72543 11.0344C2.70797 11.0577 2.6928 11.0822 2.67458 11.1052C2.62981 11.1611 2.57947 11.2141 2.52913 11.2674C2.51294 11.2847 2.49903 11.3027 2.48208 11.3197C2.42795 11.374 2.36876 11.4261 2.30855 11.4776C2.29186 11.4921 2.27744 11.5074 2.25998 11.5217C2.18865 11.5807 2.11175 11.6378 2.03207 11.6939C2.02372 11.6999 2.01664 11.7061 2.00804 11.7121C1.919 11.7737 1.82464 11.8337 1.72523 11.8921C1.43458 12.0625 1.05413 12.2935 0.692405 12.5685L0.289949 12.8748C0.120467 13.0037 0.0154893 13.1984 0.00157661 13.4094C-0.0123361 13.6203 0.0663338 13.827 0.217603 13.9764L1.54032 15.285C1.6802 15.4234 1.86891 15.5 2.06495 15.5C2.08317 15.5 2.10138 15.4992 2.11959 15.498C2.33486 15.4822 2.53217 15.3751 2.66092 15.2037L3.07729 14.6499C3.19719 14.4902 3.31659 14.3158 3.4375 14.1266C3.52022 13.997 3.6037 13.8618 3.68869 13.7154C3.74561 13.6176 3.80404 13.525 3.86399 13.4374C4.09646 13.0983 4.35473 12.8348 4.64664 12.6363C4.65676 12.6296 4.66612 12.621 4.67649 12.6143C4.73113 12.5783 4.7883 12.5472 4.84521 12.5159C4.86773 12.5034 4.88923 12.4887 4.91225 12.4769C4.96259 12.4511 5.01545 12.4301 5.06782 12.4076C5.09969 12.3938 5.13004 12.3778 5.16268 12.3655C5.20846 12.348 5.25678 12.3348 5.30408 12.3197C5.34582 12.3065 5.38629 12.291 5.42904 12.2794C5.82947 12.1718 6.21043 12.2357 6.50209 12.3328C6.56938 12.3553 6.63363 12.3788 6.69054 12.4033C6.69307 12.4043 6.69535 12.4051 6.69788 12.4061C6.8107 12.4541 6.92427 12.4967 7.03785 12.5365C7.06694 12.5467 7.09603 12.5562 7.12538 12.5657C7.23111 12.6008 7.3371 12.6323 7.4436 12.6601C7.45346 12.6626 7.46333 12.6658 7.47345 12.6683C7.94749 12.7885 8.42609 12.8375 8.90215 12.811C8.91632 12.8102 8.92947 12.8055 8.94313 12.8027C10.2752 12.7176 11.5944 12.0705 12.7967 10.8813C15.428 8.2776 15.7515 4.19867 13.5024 1.97389ZM3.2918 1.80096C3.67402 1.42258 4.18246 1.21436 4.72278 1.21436C5.2631 1.21436 5.77155 1.42258 6.15376 1.80096C6.94274 2.58151 6.94274 3.85156 6.15376 4.63211C6.10545 4.67991 6.05511 4.72471 6.00326 4.7665C5.98479 4.78152 5.96506 4.79428 5.94634 4.80829C5.91219 4.83382 5.87855 4.8601 5.84313 4.88337C5.81936 4.89914 5.79457 4.9124 5.77028 4.92692C5.73866 4.94594 5.70729 4.96546 5.67492 4.98272C5.6476 4.99699 5.61952 5.009 5.59169 5.02201C5.56108 5.03628 5.53073 5.05154 5.49962 5.06431C5.46977 5.07657 5.43941 5.08658 5.40906 5.09734C5.37895 5.1081 5.34911 5.11936 5.31875 5.12862C5.28688 5.13838 5.25475 5.14589 5.22237 5.1539C5.19278 5.16141 5.16343 5.16916 5.13384 5.17517C5.09994 5.18218 5.06554 5.18693 5.03139 5.19219C5.00331 5.19644 4.97523 5.2012 4.94716 5.2042C4.91048 5.20821 4.87355 5.21021 4.83661 5.21221C4.81106 5.21371 4.78552 5.21546 4.75971 5.21596C4.71975 5.21671 4.68003 5.21546 4.64032 5.21371C4.61781 5.21271 4.59554 5.21221 4.57328 5.21046C4.53003 5.2072 4.48677 5.2022 4.44352 5.19619C4.4253 5.19369 4.40709 5.19144 4.38913 5.18844C4.34208 5.18068 4.29528 5.17092 4.24874 5.15991C4.23533 5.15665 4.22193 5.15365 4.20852 5.15015C4.15767 5.13688 4.10708 5.12162 4.05725 5.10435C4.04916 5.1016 4.04081 5.09884 4.03271 5.09584C3.97833 5.07632 3.9247 5.05455 3.87183 5.03027C3.86854 5.02877 3.86526 5.02727 3.86197 5.02577C3.68996 4.94544 3.5268 4.83983 3.37806 4.70869L3.32317 4.66014C3.31305 4.65038 3.30192 4.64212 3.2918 4.63211C2.50308 3.85156 2.50308 2.58151 3.2918 1.80096ZM2.25493 14.9049C2.21344 14.9602 2.15222 14.9935 2.08266 14.9985C2.01386 15.0037 1.94758 14.9797 1.89825 14.9307L0.575538 13.6221C0.526717 13.5738 0.50218 13.5097 0.506986 13.4414C0.51154 13.3733 0.543918 13.3128 0.598557 13.2712L1.00101 12.9649C1.34124 12.7059 1.70474 12.4854 1.9835 12.3222C2.21066 12.1891 2.4153 12.0465 2.59794 11.8933L2.59819 11.8931C2.68925 11.8167 2.77501 11.7376 2.85519 11.6561C2.86228 11.6488 2.86784 11.641 2.87493 11.634C2.94727 11.559 3.01658 11.4824 3.07982 11.4028C3.08994 11.3903 3.09778 11.3765 3.10765 11.3638C3.16583 11.2887 3.22173 11.2124 3.27207 11.1333C3.28421 11.114 3.29382 11.093 3.30571 11.0735C3.35049 10.9991 3.3945 10.9246 3.4327 10.8467C3.44433 10.8232 3.45268 10.7982 3.46356 10.7742C3.49847 10.6983 3.53287 10.6223 3.56171 10.5429C3.57107 10.5166 3.57764 10.4886 3.5865 10.4621C3.6123 10.3845 3.63835 10.3069 3.65884 10.2261C3.65935 10.2243 3.65935 10.2226 3.65985 10.2211C3.65985 10.2206 3.66011 10.2201 3.66036 10.2196C3.78684 9.71157 3.72233 9.16401 3.47393 8.63597C3.44509 8.57465 3.42308 8.51309 3.39703 8.45153C3.19593 7.97429 3.07628 7.48929 3.04947 7.00204L8.41394 12.3097C8.41293 12.3097 8.41167 12.3097 8.41066 12.3097C8.29075 12.3027 8.17085 12.29 8.05095 12.2727C8.0421 12.2714 8.03324 12.2707 8.02439 12.2692C7.91056 12.2522 7.79698 12.2291 7.6834 12.2029C7.66949 12.1996 7.65558 12.1974 7.64141 12.1939C7.53163 12.1671 7.4221 12.1348 7.31282 12.0995C7.29638 12.0943 7.27993 12.0903 7.26349 12.0848C7.13929 12.043 7.01534 11.9962 6.8919 11.9434C6.71204 11.8665 6.53143 11.8115 6.35158 11.7744C6.32805 11.7697 6.30453 11.7632 6.28126 11.7592C6.25849 11.7552 6.23598 11.7534 6.21321 11.7499C6.16818 11.7431 6.12316 11.7359 6.07864 11.7319C6.07029 11.7311 6.06169 11.7314 6.05334 11.7306C5.99465 11.7259 5.93622 11.7224 5.87804 11.7219C5.87627 11.7219 5.8745 11.7221 5.87273 11.7221C5.80822 11.7219 5.74423 11.7241 5.68048 11.7291C5.66227 11.7306 5.64456 11.7339 5.6266 11.7359C5.57955 11.7409 5.53275 11.7457 5.48646 11.7537C5.43385 11.7627 5.38199 11.7749 5.33013 11.7879C5.31926 11.7907 5.30838 11.7922 5.2975 11.7952H5.29725C5.29624 11.7955 5.29523 11.7957 5.29421 11.796C5.19404 11.823 5.09741 11.855 5.00306 11.8901C4.99598 11.8926 4.98814 11.8946 4.98105 11.8971C4.88721 11.9326 4.7969 11.9731 4.70862 12.0169C4.70078 12.0209 4.69217 12.0237 4.68459 12.0277C4.60086 12.07 4.52067 12.1175 4.44149 12.1676C4.43011 12.1748 4.41772 12.1806 4.40608 12.1879C4.32437 12.2412 4.24545 12.2997 4.16805 12.3615C4.16046 12.3675 4.15236 12.3723 4.14503 12.3786C3.80783 12.6536 3.51339 13.0127 3.24981 13.4654C3.05048 13.8083 2.86127 14.0978 2.67104 14.3508L2.25493 14.9049ZM9.11034 12.293C9.10806 12.2907 9.10705 12.2877 9.10477 12.2855L3.07577 6.32085C3.07501 6.32009 3.07375 6.31959 3.07299 6.31884C3.11271 5.97799 3.19062 5.63714 3.3176 5.29705C3.4375 5.37638 3.56348 5.4427 3.69274 5.4995C3.69805 5.50176 3.70311 5.50451 3.70842 5.50676C3.76458 5.53104 3.82149 5.55256 3.87891 5.57283C3.8946 5.57833 3.91028 5.58384 3.92622 5.5891C3.97833 5.60611 4.03069 5.62138 4.08381 5.63489C4.10582 5.64065 4.12783 5.64565 4.14983 5.65091C4.19916 5.66217 4.24874 5.67268 4.29857 5.68094C4.32488 5.68544 4.35144 5.6887 4.378 5.6922C4.42505 5.69871 4.4721 5.70496 4.51966 5.70872C4.54976 5.71122 4.57986 5.71172 4.60996 5.71297C4.64765 5.71472 4.68534 5.71823 4.72329 5.71823C4.73037 5.71823 4.7372 5.71723 4.74403 5.71723C4.78324 5.71698 4.82245 5.71372 4.86166 5.71172C4.92439 5.70847 4.98662 5.70296 5.0491 5.69495C5.09514 5.6892 5.14117 5.68369 5.18671 5.67543C5.21909 5.66943 5.25096 5.66142 5.28308 5.65416C5.32634 5.64465 5.36934 5.63489 5.41209 5.62313C5.44422 5.61412 5.47609 5.60361 5.50796 5.59335C5.54995 5.57984 5.59169 5.56582 5.63292 5.55006C5.66429 5.53804 5.69541 5.52528 5.72627 5.51202C5.7675 5.4945 5.80823 5.47573 5.84845 5.45596C5.87829 5.44144 5.90764 5.42643 5.93698 5.41066C5.97821 5.38839 6.01869 5.36411 6.05916 5.33934C6.08597 5.32282 6.11279 5.30681 6.13909 5.28929C6.18286 5.26001 6.22535 5.22823 6.2676 5.19594C6.28884 5.17968 6.3106 5.16466 6.33134 5.14764C6.39357 5.09684 6.45403 5.04354 6.51221 4.98598C6.5714 4.92742 6.62654 4.86635 6.67865 4.80379C6.69687 4.78177 6.71255 4.75874 6.73 4.73647C6.76238 4.69468 6.79451 4.65314 6.82385 4.61009C6.84257 4.58231 6.85926 4.55378 6.87672 4.52551C6.90126 4.48622 6.92579 4.44692 6.9478 4.40663C6.96475 4.3756 6.97993 4.34382 6.99536 4.31204C7.01433 4.27325 7.0333 4.23446 7.05025 4.19492C7.06467 4.16138 7.07731 4.12735 7.09022 4.09331C7.10489 4.05452 7.1188 4.01573 7.13145 3.97644C7.14283 3.94091 7.1532 3.90512 7.16281 3.86908C7.17319 3.83054 7.1828 3.792 7.1914 3.75321C7.19949 3.71593 7.20708 3.67864 7.21366 3.6411C7.22024 3.60306 7.22555 3.56502 7.23035 3.52698C7.23516 3.48819 7.23971 3.4494 7.24275 3.41061C7.24553 3.37358 7.2468 3.33679 7.24806 3.29975C7.24933 3.25946 7.25084 3.21917 7.25034 3.17913C7.24983 3.14384 7.2473 3.1088 7.24528 3.07352C7.24275 3.03172 7.24098 2.98993 7.23642 2.94814C7.23288 2.91611 7.22732 2.88407 7.22251 2.85204C7.21593 2.8075 7.21012 2.76295 7.20126 2.7189C7.19646 2.69563 7.18963 2.67286 7.18432 2.64983C7.14384 2.47716 7.08465 2.30823 7.00699 2.14557C6.99586 2.12229 6.986 2.09852 6.97411 2.07524C6.95261 2.0337 6.92807 1.99341 6.90404 1.95287C6.88658 1.92484 6.8709 1.89656 6.85319 1.86928C6.82916 1.83225 6.80286 1.79646 6.7768 1.76042C6.76137 1.7389 6.74771 1.71663 6.73127 1.69561C9.01725 0.571454 11.6171 0.816205 13.1448 2.32775C15.1995 4.36059 14.8765 8.11543 12.439 10.5269C11.3761 11.5785 10.2509 12.1691 9.11034 12.293Z" fill="white"/>
<path d="M3.7112 3.21641C3.7112 2.66435 4.16501 2.21539 4.72304 2.21539C4.86292 2.21539 4.97599 2.10352 4.97599 1.96513C4.97599 1.82674 4.86292 1.71488 4.72304 1.71488C3.886 1.71488 3.20529 2.38832 3.20529 3.21641C3.20529 3.35481 3.31836 3.46667 3.45825 3.46667C3.59813 3.46667 3.7112 3.35481 3.7112 3.21641Z" fill="white"/>
</svg>
