<svg width="15" height="16" viewBox="0 0 15 16" fill="none" xmlns="http://www.w3.org/2000/svg">
<path d="M12.7934 2.67581C12.0211 1.90584 11.0898 1.31474 10.0651 0.944059C9.04035 0.573382 7.947 0.432135 6.86194 0.530248C6.62639 0.530248 6.39085 0.580312 6.14817 0.623223C4.65105 0.89903 3.27281 1.62382 2.19581 2.70168C1.11881 3.77953 0.393823 5.15965 0.11679 6.65941C0.0739633 6.89542 0.0454123 7.13858 0.0239991 7.3746C-0.0587454 8.40862 0.0730107 9.44861 0.410976 10.4291C0.748941 11.4096 1.2858 12.3094 1.98776 13.0719C2.68973 13.8344 3.5416 14.443 4.48978 14.8595C5.43796 15.276 6.46191 15.4913 7.4972 15.492C7.70882 15.5027 7.92084 15.5027 8.13245 15.492C8.368 15.492 8.60354 15.4419 8.84623 15.399C9.35193 15.3063 9.84696 15.1626 10.3237 14.9699C11.4901 14.4913 12.5181 13.7273 13.3137 12.7478C14.1093 11.7682 14.647 10.6044 14.8776 9.36282C14.9204 9.12681 14.949 8.88364 14.9704 8.64763C15.068 7.55308 14.9235 6.45042 14.5472 5.41821C14.171 4.386 13.5721 3.44963 12.7934 2.67581ZM2.70065 12.7886C1.99854 12.0868 1.45734 11.2403 1.11468 10.3078C0.772012 9.37535 0.636091 8.37931 0.716358 7.3889C2.60736 7.57713 4.37395 8.41919 5.71277 9.77047C7.05749 11.1123 7.89086 12.8835 8.06822 14.7768C7.08326 14.854 6.0933 14.7163 5.16662 14.373C4.23994 14.0298 3.39861 13.4892 2.70065 12.7886ZM12.2937 12.7886C11.3368 13.7423 10.1201 14.3917 8.79626 14.6552C8.59735 12.6087 7.69096 10.6962 6.23382 9.24839C4.78572 7.79281 2.87869 6.88543 0.8377 6.68086C1.10067 5.35438 1.74876 4.13525 2.70065 3.17644C3.65471 2.21881 4.87267 1.56878 6.19813 1.3098C6.39704 3.3563 7.30344 5.26881 8.76057 6.71662C10.2094 8.17122 12.116 9.07843 14.1567 9.28415C13.8937 10.6106 13.2456 11.8298 12.2937 12.7886ZM9.28163 6.19454C7.9369 4.85272 7.10354 3.08146 6.92618 1.18822H7.51861C8.46038 1.18642 9.39218 1.38141 10.2545 1.76074C11.1168 2.14007 11.8908 2.69541 12.5268 3.3913C13.1629 4.08719 13.6472 4.90833 13.9487 5.8023C14.2502 6.69627 14.3624 7.64341 14.278 8.58326C12.3872 8.38903 10.6218 7.545 9.28163 6.19454Z" fill="white"/>
</svg>
