<svg width="15" height="16" viewBox="0 0 15 16" fill="none" xmlns="http://www.w3.org/2000/svg">
<g clip-path="url(#clip0_205_2731)">
<path d="M15 9.40624C15 9.03063 14.8506 8.68062 14.5931 8.42248C14.885 8.10312 15.0338 7.67497 14.9931 7.22936C14.92 6.43498 14.2044 5.81248 13.3631 5.81248H9.5025C9.69375 5.23185 9.99999 4.16749 9.99999 3.31249C9.99999 1.95687 8.84813 0.8125 8.12499 0.8125C7.47624 0.8125 7.01186 1.17813 6.99249 1.19313C6.91811 1.25251 6.87498 1.34251 6.87498 1.43749V3.55686L5.07437 7.45624L4.99998 7.49436V7.37497C4.99998 7.20247 4.85997 7.06246 4.68747 7.06246H1.56249C0.700635 7.06249 0 7.76313 0 8.62498V13.625C0 14.4869 0.700635 15.1875 1.56249 15.1875H3.43749C4.11311 15.1875 4.69061 14.7562 4.90811 14.1544C5.42812 14.4219 6.12812 14.5625 6.5625 14.5625H12.2994C12.98 14.5625 13.5756 14.1037 13.7156 13.4712C13.7875 13.145 13.7456 12.8169 13.6031 12.5319C14.0644 12.3 14.375 11.8231 14.375 11.2812C14.375 11.06 14.3244 10.8481 14.2288 10.6569C14.69 10.4244 15 9.94812 15 9.40624ZM13.6819 10.1775C13.5613 10.1919 13.4594 10.2737 13.4206 10.3894C13.3825 10.505 13.4144 10.6318 13.5031 10.7156C13.6619 10.865 13.75 11.0662 13.75 11.2812C13.75 11.6756 13.4519 12.0069 13.0575 12.0525C12.9369 12.0669 12.835 12.1487 12.7963 12.2644C12.7582 12.38 12.79 12.5068 12.8788 12.5906C13.0844 12.7843 13.1669 13.0562 13.105 13.3362C13.0282 13.685 12.6894 13.9375 12.2994 13.9375H6.5625C6.05499 13.9375 5.20374 13.6994 4.90875 13.4037C4.81937 13.315 4.68437 13.2888 4.56812 13.3362C4.45125 13.3844 4.37499 13.4988 4.37499 13.625C4.37499 14.1419 3.95437 14.5625 3.43749 14.5625H1.56249C1.04561 14.5625 0.62499 14.1419 0.62499 13.625V8.62498C0.62499 8.1081 1.04561 7.68748 1.56249 7.68748H4.37499V7.99999C4.37499 8.10813 4.43124 8.20873 4.52373 8.26624C4.61499 8.32123 4.72998 8.32686 4.82748 8.27937L5.45247 7.96686C5.51561 7.9356 5.56623 7.8831 5.59623 7.81873L7.47123 3.75622C7.48998 3.71497 7.49997 3.66997 7.49997 3.62497V1.60686C7.62999 1.53499 7.85563 1.43749 8.12499 1.43749C8.4675 1.43749 9.375 2.28874 9.375 3.31249C9.375 4.4125 8.77626 5.99811 8.77063 6.01375C8.73439 6.10938 8.74688 6.21751 8.805 6.3025C8.86374 6.38687 8.96001 6.4375 9.06249 6.4375H13.3631C13.8844 6.4375 14.3269 6.81063 14.3706 7.28688C14.4037 7.64313 14.2325 7.98189 13.9256 8.17126C13.83 8.23 13.7731 8.33626 13.7775 8.44937C13.7819 8.56249 13.8469 8.66374 13.9469 8.71563C14.2112 8.85001 14.375 9.115 14.375 9.40624C14.375 9.80061 14.0769 10.1319 13.6819 10.1775Z" fill="#C4C4C4"/>
<path d="M4.68749 7.6875C4.51499 7.6875 4.37498 7.82751 4.37498 8.00001V13.625C4.37498 13.7975 4.51499 13.9375 4.68749 13.9375C4.85999 13.9375 5 13.7975 5 13.625V8.00001C5 7.82751 4.85999 7.6875 4.68749 7.6875Z" fill="#C4C4C4"/>
</g>
<defs>
<clipPath id="clip0_205_2731">
<rect width="15" height="15" fill="white" transform="translate(0 0.5)"/>
</clipPath>
</defs>
</svg>
