<svg width="15" height="16" viewBox="0 0 15 16" fill="none" xmlns="http://www.w3.org/2000/svg">
<g>
<path d="M7.5 9.64062C8.53359 9.64062 9.375 8.90469 9.375 8C9.375 7.09531 8.53359 6.35938 7.5 6.35938C6.46641 6.35938 5.625 7.09531 5.625 8C5.625 8.90469 6.46641 9.64062 7.5 9.64062ZM7.5 6.82812C8.27578 6.82812 8.90625 7.35313 8.90625 8C8.90625 8.64687 8.27578 9.17188 7.5 9.17188C6.72422 9.17188 6.09375 8.64687 6.09375 8C6.09375 7.35313 6.72422 6.82812 7.5 6.82812Z" fill="#C4C4C4"/>
<path d="M12.8906 2.14062H2.10938C1.79857 2.14063 1.5005 2.26409 1.28073 2.48386C1.06097 2.70363 0.9375 3.0017 0.9375 3.3125V5.89062C0.9375 6.20143 1.06097 6.4995 1.28073 6.71927C1.5005 6.93903 1.79857 7.0625 2.10938 7.0625H3.75V13.3906C3.75 13.7014 3.87347 13.9995 4.09323 14.2193C4.313 14.439 4.61107 14.5625 4.92188 14.5625H10.0781C10.232 14.5625 10.3844 14.5322 10.5266 14.4733C10.6688 14.4144 10.7979 14.3281 10.9068 14.2193C11.0156 14.1104 11.1019 13.9813 11.1608 13.8391C11.2197 13.6969 11.25 13.5445 11.25 13.3906V7.0625H12.8906C13.2014 7.0625 13.4995 6.93903 13.7193 6.71927C13.939 6.4995 14.0625 6.20143 14.0625 5.89062V3.3125C14.0625 3.0017 13.939 2.70363 13.7193 2.48386C13.4995 2.26409 13.2014 2.14062 12.8906 2.14062V2.14062ZM3.75 4.95312H3.28125V4.25H3.75V4.95312ZM10.7812 13.3906C10.7812 13.5771 10.7072 13.7559 10.5753 13.8878C10.4434 14.0197 10.2646 14.0938 10.0781 14.0938H4.92188C4.73539 14.0938 4.55655 14.0197 4.42469 13.8878C4.29283 13.7559 4.21875 13.5771 4.21875 13.3906V4.25H4.6875V12.4531C4.6875 12.5153 4.71219 12.5749 4.75615 12.6189C4.8001 12.6628 4.85971 12.6875 4.92188 12.6875C5.10836 12.6875 5.2872 12.7616 5.41906 12.8934C5.55092 13.0253 5.625 13.2041 5.625 13.3906C5.625 13.4528 5.64969 13.5124 5.69365 13.5564C5.7376 13.6003 5.79721 13.625 5.85938 13.625H9.14062C9.20279 13.625 9.2624 13.6003 9.30635 13.5564C9.35031 13.5124 9.375 13.4528 9.375 13.3906C9.375 13.2041 9.44908 13.0253 9.58094 12.8934C9.7128 12.7616 9.89164 12.6875 10.0781 12.6875C10.1403 12.6875 10.1999 12.6628 10.2439 12.6189C10.2878 12.5749 10.3125 12.5153 10.3125 12.4531V4.25H10.7812V13.3906ZM9.84375 4.25V12.2422C9.61854 12.2881 9.41181 12.3993 9.24929 12.5618C9.08676 12.7243 8.97562 12.931 8.92969 13.1562H6.07031C6.02438 12.931 5.91324 12.7243 5.75071 12.5618C5.58819 12.3993 5.38146 12.2881 5.15625 12.2422V4.25H9.84375ZM11.7188 4.25V4.95312H11.25V4.25H11.7188ZM13.5938 5.89062C13.5938 6.07711 13.5197 6.25595 13.3878 6.38781C13.2559 6.51967 13.0771 6.59375 12.8906 6.59375H11.25V5.42188H11.9531C12.0153 5.42188 12.0749 5.39718 12.1189 5.35323C12.1628 5.30927 12.1875 5.24966 12.1875 5.1875V4.01562C12.1875 3.95346 12.1628 3.89385 12.1189 3.8499C12.0749 3.80594 12.0153 3.78125 11.9531 3.78125H3.04688C2.98471 3.78125 2.9251 3.80594 2.88115 3.8499C2.83719 3.89385 2.8125 3.95346 2.8125 4.01562V5.1875C2.8125 5.24966 2.83719 5.30927 2.88115 5.35323C2.9251 5.39718 2.98471 5.42188 3.04688 5.42188H3.75V6.59375H2.10938C1.92289 6.59375 1.74405 6.51967 1.61219 6.38781C1.48033 6.25595 1.40625 6.07711 1.40625 5.89062V3.3125C1.40625 3.12602 1.48033 2.94718 1.61219 2.81532C1.74405 2.68345 1.92289 2.60938 2.10938 2.60938H12.8906C13.0771 2.60938 13.2559 2.68345 13.3878 2.81532C13.5197 2.94718 13.5938 3.12602 13.5938 3.3125V5.89062Z" fill="#C4C4C4"/>
</g>
</svg>
