<svg width="30" height="30" viewBox="0 0 30 30" fill="none" xmlns="http://www.w3.org/2000/svg">
<rect width="30" height="30" rx="15" fill="url(#paint0_linear_311_771)"/>
<path d="M18.9474 11C16.6316 15.5 14.3158 11.8438 12 16.9062L16.0526 20C18.6579 15.5 20.6842 18.5938 23 14.0938L18.9474 11ZM15.1842 17.1875C14.8646 17.1875 14.6053 16.9355 14.6053 16.625C14.6053 16.3145 14.8646 16.0625 15.1842 16.0625C15.5038 16.0625 15.7632 16.3145 15.7632 16.625C15.7632 16.9355 15.5038 17.1875 15.1842 17.1875ZM17.5 16.0625C17.0206 16.0625 16.6316 15.6848 16.6316 15.2188C16.6316 14.7527 17.0206 14.375 17.5 14.375C17.9794 14.375 18.3684 14.7527 18.3684 15.2188C18.3684 15.6848 17.9794 16.0625 17.5 16.0625ZM19.8158 14.375C19.4962 14.375 19.2368 14.123 19.2368 13.8125C19.2368 13.502 19.4962 13.25 19.8158 13.25C20.1354 13.25 20.3947 13.502 20.3947 13.8125C20.3947 14.123 20.1354 14.375 19.8158 14.375Z" fill="white"/>
<path d="M10.1842 21.7925C9.06713 21.7925 8.15789 20.8442 8.15789 19.6792C8.15789 19.346 8.41726 19.0755 8.73684 19.0755C9.05642 19.0755 9.31579 19.346 9.31579 19.6792C9.31579 20.1786 9.70542 20.5849 10.1842 20.5849C10.5038 20.5849 10.7632 20.8554 10.7632 21.1887C10.7632 21.522 10.5038 21.7925 10.1842 21.7925ZM17.7982 18.3576C17.2711 18.744 16.7307 19.3517 16.1517 20.4252L15.655 21.3463L10.2739 16.9369C11.3881 14.3241 12.1506 13.0196 14.7226 12.3549C14.775 12.3413 14.8216 12.3271 14.8714 12.3129C14.6158 11.909 14.3729 11.541 14.1572 11.2261H12.6447C12.4051 11.2261 12.2105 11.0232 12.2105 10.7733C12.2105 10.5233 12.4051 10.3205 12.6447 10.3205H14.2368L15.3206 8.06023C15.3693 7.95879 15.3947 7.84649 15.3947 7.73268C15.3947 7.32815 15.0804 7 14.6919 7H10.3081C9.91963 7 9.60526 7.32815 9.60526 7.73268C9.60526 7.84649 9.63074 7.95879 9.67937 8.06053L11.0526 10.9245C9.74218 12.7799 7 17.2364 7 19.6792C7 21.5132 8.42566 23 10.1842 23H14.8158C16.5743 23 18 21.5132 18 19.6792C18 19.2856 17.9227 18.8364 17.7982 18.3576Z" fill="white"/>
<defs>
<linearGradient id="paint0_linear_311_771" x1="15" y1="0" x2="15" y2="30" gradientUnits="userSpaceOnUse">
<stop stop-color="#C04848"/>
<stop offset="1" stop-color="#480048"/>
</linearGradient>
</defs>
</svg>
