<svg width="30" height="30" viewBox="0 0 30 30" fill="none" xmlns="http://www.w3.org/2000/svg">
<rect width="30" height="30" rx="15" fill="url(#paint0_linear_311_714)"/>
<path d="M12.8567 22.4117C12.4086 22.4117 11.9727 22.2268 11.6607 21.9045L9.35032 19.5133C9.19781 19.3636 9.07802 19.1641 9.00898 18.9421L7.04769 12.1877C7.01525 12.0763 7 11.9785 7 11.8801C7 11.2687 7.49746 10.7715 8.10917 10.7715C8.56587 10.7715 8.98208 11.0597 9.14457 11.489L11.2744 17.0849L13.1786 18.2545H14.3862L13.4265 15.2039C13.3955 15.1208 13.3777 15.024 13.3777 14.9287C13.3777 14.4703 13.7509 14.0973 14.2096 14.0973C14.4808 14.0973 14.7353 14.2303 14.8914 14.4534L16.6021 16.9106C17.9247 17.3401 18.5625 17.8055 19.3935 18.6095L19.4781 18.6912V22.4117H12.8567Z" fill="white"/>
<path d="M22.8057 22.9658H21.1419C20.6825 22.9658 20.3101 22.5936 20.3101 22.1344V17.9772C20.3101 17.518 20.6825 17.1458 21.1419 17.1458H22.8057V22.9658Z" fill="white"/>
<path d="M9.92278 11.1947L11.1138 14.3242C11.548 14.5318 12.0324 14.6515 12.546 14.6515C12.5546 14.6515 12.5629 14.6504 12.5712 14.6501C12.7043 13.8655 13.3873 13.2658 14.2097 13.2658C14.5128 13.2658 14.8042 13.3514 15.0582 13.5025C15.5648 12.9188 15.8735 12.1591 15.8735 11.3258C15.8735 9.48911 14.3836 8 12.546 8C11.0297 8 9.75308 9.01436 9.35156 10.4004C9.6014 10.6099 9.80299 10.8787 9.92278 11.1947ZM12.546 10.2172C13.1585 10.2172 13.6551 10.7135 13.6551 11.3258C13.6551 11.938 13.1585 12.4344 12.546 12.4344C11.9334 12.4344 11.4368 11.938 11.4368 11.3258C11.4368 10.7135 11.9334 10.2172 12.546 10.2172Z" fill="white"/>
<defs>
<linearGradient id="paint0_linear_311_714" x1="15" y1="0" x2="15" y2="30" gradientUnits="userSpaceOnUse">
<stop stop-color="#C04848"/>
<stop offset="1" stop-color="#480048"/>
</linearGradient>
</defs>
</svg>
