<svg width="30" height="30" viewBox="0 0 30 30" fill="none" xmlns="http://www.w3.org/2000/svg">
<rect width="30" height="30" rx="15" fill="url(#paint0_linear_312_707)"/>
<path d="M13.2409 9.9713L11.3877 12.6134C11.3649 12.6458 11.355 12.6809 11.355 12.7151C11.355 12.8069 11.4318 12.899 11.5342 12.8999C11.5483 12.8999 11.563 12.8963 11.578 12.893L13.93 12.3302C14.0054 12.3119 14.0564 12.2441 14.0564 12.1697C14.0564 12.1568 14.0549 12.1439 14.0516 12.131L13.544 10.0286C13.5242 9.9461 13.4537 9.8999 13.3798 9.8999C13.3282 9.8999 13.2754 9.9215 13.2409 9.9713Z" fill="white"/>
<path d="M11.0549 15.8999C9.23144 15.8999 7.75317 17.3774 7.75317 19.1999C7.75317 21.0224 9.23144 22.4999 11.0549 22.4999C12.8783 22.4999 14.3566 21.0224 14.3566 19.1999C14.3566 17.3774 12.8783 15.8999 11.0549 15.8999ZM11.0549 18.8999C11.717 18.8999 12.2555 19.3709 12.2555 19.9499C12.2555 20.4377 11.8716 20.8451 11.355 20.9627V21.2999C11.355 21.4658 11.2209 21.5999 11.0549 21.5999C10.8889 21.5999 10.7547 21.4658 10.7547 21.2999V20.9636C10.3144 20.8664 9.95902 20.5646 9.86267 20.171C9.85727 20.1482 9.85427 20.1245 9.85427 20.0999C9.85427 19.934 9.98844 19.7999 10.1544 19.7999C10.2958 19.7999 10.4141 19.8974 10.4462 20.0288C10.4969 20.237 10.7643 20.3999 11.0549 20.3999C11.3803 20.3999 11.6552 20.1938 11.6552 19.9499C11.6552 19.706 11.3803 19.4999 11.0549 19.4999C10.3927 19.4999 9.85427 19.0289 9.85427 18.4499C9.85427 17.9621 10.2382 17.5547 10.7547 17.4371V17.0999C10.7547 16.934 10.8889 16.7999 11.0549 16.7999C11.2209 16.7999 11.355 16.934 11.355 17.0999V17.4362C11.7954 17.5334 12.1508 17.8352 12.2471 18.2288C12.2525 18.2516 12.2555 18.2753 12.2555 18.2999C12.2555 18.4658 12.1213 18.5999 11.9554 18.5999C11.814 18.5999 11.6957 18.5024 11.6636 18.371C11.6129 18.1628 11.3454 17.9999 11.0549 17.9999C10.7295 17.9999 10.4546 18.206 10.4546 18.4499C10.4546 18.6938 10.7295 18.8999 11.0549 18.8999Z" fill="white"/>
<path d="M22.7611 21.6001H20.3599V15.3001L21.5605 14.1001L22.7611 15.3001V21.6001Z" fill="white"/>
<path d="M22.1608 23.4H20.9602C20.6288 23.4 20.3599 23.1312 20.3599 22.8V22.2H22.7611V22.8C22.7611 23.1312 22.4922 23.4 22.1608 23.4Z" fill="white"/>
<path d="M19.7514 8.68725C19.7097 8.51565 19.5563 8.40045 19.3873 8.40015C19.3579 8.40015 19.3282 8.40345 19.2981 8.41035L14.0754 9.66615L14.6352 11.9905C14.6505 12.052 14.6568 12.1144 14.6568 12.1762C14.6565 12.3127 14.6178 12.4495 14.5437 12.5701C14.4368 12.7444 14.2678 12.8665 14.0685 12.9139L11.5703 13.5133L12.0335 15.4285C13.714 15.8632 14.957 17.3845 14.957 19.2001C14.957 20.3365 14.4677 21.3562 13.6918 22.069C13.7867 22.1725 13.9328 22.2241 14.0793 22.1884L19.7595 20.8102V15.0517L20.9916 13.8202L19.7514 8.68725ZM15.2571 16.0501C15.2571 15.8392 15.4018 15.6625 15.5978 15.6136L17.9991 15.0136C18.0342 15.0049 18.0708 15.0001 18.1086 15.0001C18.3571 15.0001 18.5589 15.2017 18.5589 15.4501C18.5589 15.6607 18.4142 15.8377 18.2182 15.8866L15.8169 16.4866C15.7818 16.4953 15.7455 16.5001 15.7074 16.5001C15.4588 16.5001 15.2571 16.2985 15.2571 16.0501ZM18.5183 17.6866L16.1171 18.2866C16.082 18.2953 16.0456 18.3001 16.0075 18.3001C15.759 18.3001 15.5573 18.0985 15.5573 17.8501C15.5573 17.6392 15.702 17.4625 15.898 17.4136L18.2992 16.8136C18.3343 16.8049 18.371 16.8001 18.4088 16.8001C18.6573 16.8001 18.859 17.0017 18.859 17.2501C18.859 17.4607 18.7143 17.6377 18.5183 17.6866ZM18.859 13.3138C18.859 13.4794 18.6585 13.5625 18.5411 13.4452L17.9955 12.8998L16.9266 13.9681C16.8453 14.0497 16.7324 14.1001 16.6078 14.1001C16.4836 14.1001 16.3707 14.0497 16.2888 13.9681L16.0075 13.6864L15.4258 14.2678C15.3442 14.3497 15.2316 14.4001 15.1071 14.4001C14.8585 14.4001 14.6568 14.1988 14.6568 13.9501C14.6568 13.8259 14.7072 13.7131 14.7892 13.6315L15.6885 12.7324C15.7704 12.6508 15.8833 12.6001 16.0075 12.6001C16.1321 12.6001 16.2446 12.6508 16.3266 12.7324L16.6081 13.0138L17.3591 12.2632L16.8134 11.7178C16.6958 11.6005 16.7786 11.4001 16.9446 11.4001H18.672C18.7753 11.4001 18.859 11.4835 18.859 11.5867V13.3138Z" fill="white"/>
<path d="M10.8235 13.0763C10.7986 12.986 10.7548 12.8195 10.7548 12.7151C10.7548 12.5552 10.8037 12.4004 10.8967 12.2687L12.7706 9.5951C12.8964 9.4154 13.084 9.2879 13.2974 9.2366L16.4577 8.4764V7.1999C16.4577 7.034 16.3236 6.8999 16.1576 6.8999H8.65367C8.48769 6.8999 8.35352 7.034 8.35352 7.1999V16.3898C9.05468 15.7163 10.0056 15.2999 11.0549 15.2999C11.1663 15.2999 11.2758 15.3074 11.3851 15.3167L10.8235 13.0763Z" fill="white"/>
<defs>
<linearGradient id="paint0_linear_312_707" x1="15" y1="0" x2="15" y2="30" gradientUnits="userSpaceOnUse">
<stop stop-color="#C04848"/>
<stop offset="1" stop-color="#480048"/>
</linearGradient>
</defs>
</svg>
