<svg width="30" height="30" viewBox="0 0 30 30" fill="none" xmlns="http://www.w3.org/2000/svg">
<rect width="30" height="30" rx="15" fill="url(#paint0_linear_311_762)"/>
<path d="M9.6104 20.25C8.79297 20.25 8.03289 20.009 7.39258 19.5986V22.7707L9.6104 21.8207L11.8282 22.7707V19.5986C11.1879 20.009 10.4278 20.25 9.6104 20.25Z" fill="white"/>
<path d="M21.3332 10.4332H20.6996V9.48322H21.0164C21.3662 9.48322 21.6501 9.19949 21.6501 8.84989C21.6501 8.50029 21.3662 8.21655 21.0164 8.21655H9.61045C9.26067 8.21655 8.97679 8.50029 8.97679 8.84989C8.97679 9.19949 9.26067 9.48322 9.61045 9.48322H9.92728V10.4332H9.29362C8.25758 10.4332 7.41417 11.2661 7.39453 12.2968C8.04689 11.9193 8.80221 11.6999 9.61045 11.6999C12.0602 11.6999 14.0461 13.6848 14.0461 16.1332C14.0461 17.2561 13.6253 18.278 12.9365 19.0592C13.3807 19.2784 13.8595 19.4395 14.3629 19.5292V20.8832H13.4124C12.8878 20.8832 12.4619 21.3085 12.4619 21.8332C12.4619 22.3579 12.8878 22.7832 13.4124 22.7832H17.2144C17.7391 22.7832 18.1649 22.3579 18.1649 21.8332C18.1649 21.3085 17.7391 20.8832 17.2144 20.8832H16.2639V19.5295C17.9381 19.2305 19.3438 18.1596 20.0992 16.6966C21.2927 16.3505 23.2342 15.1512 23.2342 12.6499V12.3332C23.2342 11.2854 22.3816 10.4332 21.3332 10.4332ZM19.1154 14.3916C19.1154 14.6538 18.9025 14.8666 18.6402 14.8666C18.3778 14.8666 18.1649 14.6538 18.1649 14.3916V11.5416C18.1649 11.2794 18.3778 11.0666 18.6402 11.0666C18.9025 11.0666 19.1154 11.2794 19.1154 11.5416V14.3916ZM21.9669 12.6499C21.9669 13.9267 21.2664 14.662 20.6283 15.068C20.671 14.795 20.6996 14.5176 20.6996 14.2332V11.6999H21.3332C21.6827 11.6999 21.9669 11.9839 21.9669 12.3332V12.6499Z" fill="white"/>
<path d="M9.61039 12.6499C7.68564 12.6499 6.12524 14.2095 6.12524 16.1332C6.12524 18.057 7.68564 19.6166 9.61039 19.6166C11.5351 19.6166 13.0955 18.057 13.0955 16.1332C13.0955 14.2095 11.5351 12.6499 9.61039 12.6499ZM10.7193 18.0332H8.81831C8.55598 18.0332 8.34307 17.8204 8.34307 17.5582C8.34307 17.296 8.55598 17.0832 8.81831 17.0832H9.29356V15.5873L9.10283 15.7219C9.02362 15.7814 8.9254 15.8166 8.81831 15.8166C8.55598 15.8166 8.34307 15.6038 8.34307 15.3416C8.34307 15.1861 8.41784 15.048 8.5338 14.9613L9.48429 14.3279C9.5635 14.2684 9.66172 14.2332 9.76881 14.2332C10.0311 14.2332 10.2441 14.446 10.2441 14.7082V17.0832H10.7193C10.9816 17.0832 11.1945 17.296 11.1945 17.5582C11.1945 17.8204 10.9816 18.0332 10.7193 18.0332Z" fill="white"/>
<defs>
<linearGradient id="paint0_linear_311_762" x1="15" y1="0" x2="15" y2="30" gradientUnits="userSpaceOnUse">
<stop stop-color="#C04848"/>
<stop offset="1" stop-color="#480048"/>
</linearGradient>
</defs>
</svg>
