<svg width="30" height="30" viewBox="0 0 30 30" fill="none" xmlns="http://www.w3.org/2000/svg">
<rect width="30" height="30" rx="15" fill="url(#paint0_linear_312_712)"/>
<g clip-path="url(#clip0_312_712)">
<path d="M9.98989 18.3735C9.39361 18.7566 8.84071 18.9666 8.84071 19.5283C8.84071 19.7877 8.94362 20.0363 9.12697 20.2199L10.1375 21.2304C10.3211 21.4138 10.5697 21.5167 10.8291 21.5167C11.3896 21.5167 11.5992 20.9587 11.9805 20.365C12.1568 20.0892 12.4637 19.933 12.7699 19.9334C12.932 19.9334 13.1157 19.9717 13.244 20.0654L14.7633 21.1484C15.0176 21.3191 15.1699 21.5819 15.174 21.8622C15.1769 22.0636 15.1079 22.2672 14.9606 22.4322C14.2405 23.239 13.0853 24.0481 11.3804 24.05C10.785 24.0507 10.2122 23.8154 9.79102 23.3945L6.96319 20.5667C6.54202 20.1455 6.30674 19.572 6.30737 18.9767C6.30959 17.2642 7.12627 16.1144 7.93694 15.3946C8.10667 15.2438 8.31757 15.184 8.52404 15.1834C8.79067 15.1827 9.03419 15.3376 9.20107 15.589L10.292 17.1131C10.3883 17.2445 10.424 17.394 10.424 17.5641C10.424 17.876 10.273 18.1926 9.98989 18.3735Z" fill="white"/>
<path d="M16.4412 18.9834C16.4412 16.3642 14.3103 14.2334 11.6912 14.2334C11.3416 14.2334 11.0579 14.5171 11.0579 14.8667C11.0579 15.2163 11.3416 15.5001 11.6912 15.5001C13.6118 15.5001 15.1745 17.0628 15.1745 18.9834C15.1745 19.333 15.4583 19.6167 15.8079 19.6167C16.1575 19.6167 16.4412 19.333 16.4412 18.9834Z" fill="white"/>
<path d="M14.2248 18.6666C14.2248 17.4446 13.2301 16.45 12.0081 16.45C11.6585 16.45 11.3748 16.7337 11.3748 17.0833C11.3748 17.4329 11.6585 17.7166 12.0081 17.7166C12.5319 17.7166 12.9581 18.1429 12.9581 18.6666C12.9581 19.0162 13.2418 19.3 13.5914 19.3C13.941 19.3 14.2248 19.0162 14.2248 18.6666Z" fill="white"/>
<path d="M22.7745 14.2334H17.7078C17.3582 14.2334 17.0745 14.5171 17.0745 14.8667V21.3473C17.0745 21.6158 17.2923 21.8334 17.5605 21.8334C17.6565 21.8334 17.7505 21.8049 17.8303 21.7517L19.6078 20.5667H22.7745C23.1241 20.5667 23.4078 20.283 23.4078 19.9334V14.8667C23.4078 14.5171 23.1241 14.2334 22.7745 14.2334ZM20.2411 17.0834C20.9397 17.0834 21.5078 17.5806 21.5078 18.1917C21.5078 18.7066 21.1028 19.1367 20.5578 19.2608V19.6167C20.5578 19.7918 20.4162 19.9334 20.2411 19.9334C20.066 19.9334 19.9245 19.7918 19.9245 19.6167V19.2617C19.4599 19.1591 19.085 18.8406 18.9833 18.4251C18.9776 18.401 18.9745 18.376 18.9745 18.3501C18.9745 18.1749 19.116 18.0334 19.2911 18.0334C19.4403 18.0334 19.565 18.1363 19.5989 18.275C19.6524 18.4948 19.9346 18.6667 20.2411 18.6667C20.5844 18.6667 20.8745 18.4492 20.8745 18.1917C20.8745 17.9343 20.5844 17.7167 20.2411 17.7167C19.5426 17.7167 18.9745 17.2196 18.9745 16.6084C18.9745 16.0935 19.3795 15.6635 19.9245 15.5393V15.1834C19.9245 15.0083 20.066 14.8667 20.2411 14.8667C20.4162 14.8667 20.5578 15.0083 20.5578 15.1834V15.5384C21.0223 15.641 21.3973 15.9595 21.4989 16.375C21.5046 16.3991 21.5078 16.4241 21.5078 16.4501C21.5078 16.6252 21.3662 16.7667 21.1911 16.7667C21.042 16.7667 20.9172 16.6638 20.8833 16.5251C20.8298 16.3053 20.5477 16.1334 20.2411 16.1334C19.8979 16.1334 19.6078 16.3509 19.6078 16.6084C19.6078 16.8658 19.8979 17.0834 20.2411 17.0834Z" fill="white"/>
<path d="M19.6077 6.94995H10.741C10.3914 6.94995 10.1077 7.23368 10.1077 7.58328V13.4305C10.1077 13.6991 10.3255 13.9166 10.5937 13.9166C10.6897 13.9166 10.7837 13.8881 10.8635 13.8349L12.641 12.65H19.6077C19.9573 12.65 20.241 12.3662 20.241 12.0166V7.58328C20.241 7.23368 19.9573 6.94995 19.6077 6.94995ZM15.1743 7.58328C15.6987 7.58328 16.1243 8.00857 16.1243 8.53328C16.1243 9.058 15.6987 9.48328 15.1743 9.48328C14.6499 9.48328 14.2243 9.058 14.2243 8.53328C14.2243 8.00857 14.6499 7.58328 15.1743 7.58328ZM16.441 12.0166H13.9077C13.7325 12.0166 13.591 11.8751 13.591 11.7C13.591 10.8253 14.2997 10.1166 15.1743 10.1166C16.049 10.1166 16.7577 10.8253 16.7577 11.7C16.7577 11.8751 16.6161 12.0166 16.441 12.0166Z" fill="white"/>
</g>
<defs>
<linearGradient id="paint0_linear_312_712" x1="15" y1="0" x2="15" y2="30" gradientUnits="userSpaceOnUse">
<stop stop-color="#C04848"/>
<stop offset="1" stop-color="#480048"/>
</linearGradient>
<clipPath id="clip0_312_712">
<rect width="18.9901" height="19" fill="white" transform="translate(5 6)"/>
</clipPath>
</defs>
</svg>
