<svg width="30" height="30" viewBox="0 0 30 30" fill="none" xmlns="http://www.w3.org/2000/svg">
<rect width="30" height="30" rx="15" fill="url(#paint0_linear_313_713)"/>
<path d="M13.4078 9.30153C13.3016 9.30003 13.1932 9.33845 13.105 9.4267L12.1796 10.3521L9.24077 7.41175C9.1045 7.27608 8.9202 7.20014 8.7278 7.20044C8.5357 7.20074 8.35141 7.27668 8.21544 7.41265L6.83892 8.78917C6.70295 8.92514 6.62671 9.10913 6.62671 9.30153C6.62671 9.49393 6.70295 9.67793 6.83892 9.8139L9.77835 12.7533L8.85297 13.6787C8.76652 13.7652 8.7278 13.872 8.7278 13.9762C8.7278 14.195 8.89709 14.4042 9.15342 14.4042H13.2301C13.5615 14.4042 13.8305 14.1353 13.8305 13.8039V9.72716C13.8305 9.47292 13.6243 9.30424 13.4078 9.30153Z" fill="white"/>
<path d="M13.2301 15.605H9.15342C8.89709 15.605 8.7278 15.8139 8.7278 16.0324C8.7278 16.1372 8.76652 16.2434 8.85297 16.3302L9.77835 17.2555L6.83892 20.195C6.70295 20.3306 6.62671 20.5149 6.62671 20.7073C6.62671 20.8994 6.70295 21.0837 6.83892 21.2197L8.21544 22.5962C8.35141 22.7319 8.5354 22.8084 8.7275 22.8087C8.9199 22.809 9.1045 22.7328 9.24077 22.5971L12.1796 19.6568L13.105 20.5822C13.1932 20.6701 13.3016 20.7091 13.4078 20.7076C13.6243 20.7046 13.8305 20.5356 13.8305 20.2817V16.205C13.8305 15.8736 13.5615 15.605 13.2301 15.605Z" fill="white"/>
<path d="M15.6313 14.4042H19.708C19.9644 14.4042 20.1337 14.195 20.1337 13.9762C20.1337 13.8717 20.0949 13.7652 20.0085 13.6787L19.0831 12.7533L22.0225 9.8139C22.1585 9.67793 22.2348 9.49393 22.2348 9.30153C22.2348 9.10913 22.1585 8.92514 22.0225 8.78917L20.646 7.41265C20.5101 7.27668 20.3258 7.20074 20.1337 7.20044C19.9413 7.20014 19.757 7.27608 19.6207 7.41175L16.6819 10.3521L15.7565 9.4267C15.6682 9.33845 15.5599 9.30003 15.4536 9.30153C15.2372 9.30424 15.031 9.47292 15.031 9.72716V13.8039C15.031 14.1353 15.2999 14.4042 15.6313 14.4042Z" fill="white"/>
<path d="M19.0831 17.2555L20.0085 16.3302C20.0949 16.2434 20.1337 16.1369 20.1337 16.0324C20.1337 15.8139 19.9644 15.605 19.708 15.605H15.6313C15.2999 15.605 15.031 15.8736 15.031 16.205V20.2817C15.031 20.5356 15.2372 20.7046 15.4536 20.7076C15.5599 20.7091 15.6682 20.6701 15.7565 20.5822L16.6819 19.6568L19.6207 22.5971C19.757 22.7328 19.9416 22.809 20.1343 22.8087C20.3261 22.8084 20.5101 22.7319 20.646 22.5962L22.0225 21.2197C22.1585 21.0837 22.2348 20.8994 22.2348 20.7073C22.2348 20.5149 22.1585 20.3306 22.0225 20.195L19.0831 17.2555Z" fill="white"/>
<defs>
<linearGradient id="paint0_linear_313_713" x1="15" y1="0" x2="15" y2="30" gradientUnits="userSpaceOnUse">
<stop stop-color="#C04848"/>
<stop offset="1" stop-color="#480048"/>
</linearGradient>
</defs>
</svg>
